%FSTAX23Y23*%
%MOIN*%
%SFA1B1*%

%IPPOS*%
%AMD16*
4,1,8,0.045300,0.018700,0.018700,0.045300,-0.018700,0.045300,-0.045300,0.018700,-0.045300,-0.018700,-0.018700,-0.045300,0.018700,-0.045300,0.045300,-0.018700,0.045300,0.018700,0.0*
%
%ADD10C,0.019685*%
%ADD11C,0.039370*%
%ADD12C,0.118110*%
%ADD13C,0.078740*%
%ADD14O,0.098425X0.060000*%
%ADD15C,0.090551*%
G04~CAMADD=16~4~0.0~0.0~905.7~905.7~0.0~265.3~0~0.0~0.0~0.0~0.0~0~0.0~0.0~0.0~0.0~0~0.0~0.0~0.0~315.0~905.7~905.7*
%ADD16D16*%
%ADD17R,0.078740X0.078740*%
%LNdual_channel_common_vcc_pcb_x2-1*%
%LPD*%
G54D10*
X016Y0001D02*
Y01275D01*
X0Y0D02*
Y01275D01*
Y0D02*
X03245D01*
Y01275*
X0D02*
X03245D01*
X02643Y00334D02*
X02655Y00322D01*
X02888Y00139D02*
X02901Y00125D01*
X02888Y01148D02*
X029Y01135D01*
X01268Y0115D02*
X0128Y01137D01*
X01268Y0014D02*
X01281Y00127D01*
X01023Y00335D02*
X01035Y00324D01*
G54D11*
X02021Y01189D02*
X02169D01*
X01889Y00719D02*
X02169D01*
X0243Y00839D02*
X0249Y00779D01*
X0203Y00839D02*
X0243D01*
X01982Y00887D02*
X0203Y00839D01*
X02209Y00528D02*
X02375D01*
X02169Y00569D02*
X02209Y00528D01*
X0178Y00099D02*
X0192D01*
X01675Y00204D02*
X0178Y00099D01*
X01675Y00204D02*
Y01044D01*
X0178Y01149*
X0205Y00569D02*
X02169D01*
X01965Y00484D02*
X0205Y00569D01*
X01965Y00254D02*
Y00484D01*
X02375Y00528D02*
X0249Y00643D01*
Y00779*
X0186Y00887D02*
X01982D01*
X0186D02*
X01981Y01008D01*
Y01149*
X02021Y01189*
X02169D02*
X02335D01*
X02375Y01148*
X02169Y00099D02*
X02335D01*
X02375Y00139*
X01765Y00254D02*
Y00595D01*
X0186Y0069*
X01889Y00719*
X02169D02*
X02335D01*
X02375Y00759*
X0186Y00159D02*
Y00494D01*
Y00159D02*
X0192Y00099D01*
X02169*
X003Y001D02*
X00549D01*
X0024Y0016D02*
X003Y001D01*
X0024Y0016D02*
Y00495D01*
X00715Y0072D02*
X00755Y0076D01*
X00549Y0072D02*
X00715D01*
X0024Y00692D02*
X00269Y0072D01*
X00145Y00596D02*
X0024Y00692D01*
X00145Y00255D02*
Y00596D01*
X00715Y001D02*
X00755Y0014D01*
X00549Y001D02*
X00715D01*
X00715Y0119D02*
X00755Y0115D01*
X00549Y0119D02*
X00715D01*
X00361Y0115D02*
X00401Y0119D01*
X00361Y0101D02*
Y0115D01*
X0024Y00889D02*
X00361Y0101D01*
X0024Y00889D02*
X00362D01*
X0087Y00645D02*
Y0078D01*
X00755Y0053D02*
X0087Y00645D01*
X00345Y00255D02*
Y00485D01*
X0043Y0057*
X00549*
X00055Y01045D02*
X0016Y0115D01*
X00055Y00205D02*
Y01045D01*
Y00205D02*
X0016Y001D01*
X003*
X00549Y0057D02*
X00589Y0053D01*
X00755*
X00362Y00889D02*
X0041Y0084D01*
X0081*
X0087Y0078*
X00269Y0072D02*
X00549D01*
X00401Y0119D02*
X00549D01*
G54D12*
X02199Y00954D02*
X02279D01*
X03006*
X0302Y00939*
X02199Y00334D02*
X02279D01*
X0211Y00329D02*
X02199Y00334D01*
X0268Y00569D02*
X02729D01*
X02769Y00528*
X0268Y00099D02*
X02729D01*
X02769Y00139*
X0211Y00949D02*
X02199Y00954D01*
X0268Y01189D02*
X02729D01*
X02769Y01148*
X0268Y00719D02*
X02729D01*
X02769Y00759*
X02655Y00322D02*
X0302D01*
X02279Y00334D02*
X02643D01*
X02899Y00519D02*
X0302D01*
X0289Y00528D02*
X02899Y00519D01*
X02769Y00528D02*
X0289D01*
X02901Y00125D02*
X0302D01*
X02769Y00139D02*
X02888D01*
X029Y01135D02*
X0302D01*
X02769Y01148D02*
X02888D01*
X02902Y00742D02*
X0302D01*
X02885Y00759D02*
X02902Y00742D01*
X02769Y00759D02*
X02885D01*
X01149Y0076D02*
X01265D01*
X01282Y00744*
X014*
X01149Y0115D02*
X01268D01*
X0128Y01137D02*
X014D01*
X01149Y0014D02*
X01268D01*
X01281Y00127D02*
X014D01*
X01149Y0053D02*
X0127D01*
X01279Y0052*
X014*
X00659Y00335D02*
X01023D01*
X01035Y00324D02*
X014D01*
X01109Y0072D02*
X01149Y0076D01*
X0106Y0072D02*
X01109D01*
X01109Y0119D02*
X01149Y0115D01*
X0106Y0119D02*
X01109D01*
X0049Y0095D02*
X00579Y00955D01*
X01109Y001D02*
X01149Y0014D01*
X0106Y001D02*
X01109D01*
X01109Y0057D02*
X01149Y0053D01*
X0106Y0057D02*
X01109D01*
X0049Y0033D02*
X00579Y00335D01*
X00659*
X01386Y00955D02*
X014Y0094D01*
X00659Y00955D02*
X01386D01*
X00579D02*
X00659D01*
G54D13*
X0302Y01135D03*
Y00742D03*
Y00939D03*
Y00519D03*
Y00125D03*
Y00322D03*
X0186Y00494D03*
Y00887D03*
Y0069D03*
X01765Y00254D03*
X0178Y01149D03*
X00145Y00255D03*
X0024Y00495D03*
Y00889D03*
Y00692D03*
X0016Y0115D03*
X014Y01137D03*
Y00744D03*
Y0094D03*
Y0052D03*
Y00127D03*
Y00324D03*
G54D14*
X02169Y00719D03*
Y01189D03*
X0268D03*
X0211Y00949D03*
X0268Y00719D03*
X02169Y00099D03*
Y00569D03*
X0268D03*
X0211Y00329D03*
X0268Y00099D03*
X00549Y0072D03*
Y0119D03*
X0106D03*
X0049Y0095D03*
X0106Y0072D03*
X00549Y001D03*
Y0057D03*
X0106D03*
X0049Y0033D03*
X0106Y001D03*
G54D15*
X02279Y00954D03*
X02769Y00759D03*
Y01148D03*
X02279Y00334D03*
X02769Y00139D03*
Y00528D03*
X00659Y00955D03*
X01149Y0076D03*
Y0115D03*
X00659Y00335D03*
X01149Y0014D03*
Y0053D03*
G54D16*
X02375Y00759D03*
Y01148D03*
Y00139D03*
Y00528D03*
X00755Y0076D03*
Y0115D03*
Y0014D03*
Y0053D03*
G54D17*
X01965Y00254D03*
X01981Y01149D03*
X00345Y00255D03*
X00361Y0115D03*
M02*