%FSTAX23Y23*%
%MOIN*%
%SFA1B1*%

%IPPOS*%
%AMD17*
4,1,8,0.045300,0.018700,0.018700,0.045300,-0.018700,0.045300,-0.045300,0.018700,-0.045300,-0.018700,-0.018700,-0.045300,0.018700,-0.045300,0.045300,-0.018700,0.045300,0.018700,0.0*
%
%AMD19*
4,1,8,-0.059100,-0.024500,-0.024500,-0.059100,0.024500,-0.059100,0.059100,-0.024500,0.059100,0.024500,0.024500,0.059100,-0.024500,0.059100,-0.059100,0.024500,-0.059100,-0.024500,0.0*
%
%ADD10C,0.010000*%
%ADD11C,0.019685*%
%ADD12C,0.118110*%
%ADD13C,0.039370*%
%ADD14C,0.098425*%
%ADD15C,0.118110*%
%ADD16C,0.090551*%
G04~CAMADD=17~4~0.0~0.0~905.7~905.7~0.0~265.3~0~0.0~0.0~0.0~0.0~0~0.0~0.0~0.0~0.0~0~0.0~0.0~0.0~315.0~905.7~905.7*
%ADD17D17*%
%ADD18C,0.078740*%
G04~CAMADD=19~4~0.0~0.0~1181.0~1181.0~0.0~345.9~0~0.0~0.0~0.0~0.0~0~0.0~0.0~0.0~0.0~0~0.0~0.0~0.0~135.0~1181.0~1181.0*
%ADD19D19*%
%ADD20R,0.078740X0.078740*%
%LNpcb2_x10-1*%
%LPD*%
G54D10*
X016Y02687D02*
Y03342D01*
X032Y02687D02*
Y03342D01*
X00005D02*
X016D01*
X00005Y02685D02*
Y03342D01*
X016D02*
X032D01*
X016Y01347D02*
Y02687D01*
X032Y01347D02*
Y02687D01*
X00005D02*
X032D01*
X00005Y01347D02*
Y02687D01*
Y02002D02*
X016D01*
X032*
X00005Y00007D02*
X032D01*
X016D02*
Y01347D01*
X032Y00007D02*
Y01347D01*
X00005D02*
X032D01*
X00005Y00007D02*
Y01347D01*
Y00662D02*
X016D01*
X032*
G54D11*
X0271Y03242D02*
X0275Y03202D01*
X02718Y02813D02*
X0275D01*
X0262Y03007D02*
X02624Y03004D01*
X0218Y03002D02*
X02186Y03007D01*
X02865Y02813D02*
X0287Y02807D01*
X02038Y03267D02*
X02063Y03242D01*
X00438Y03265D02*
X00463Y0324D01*
X01265Y02811D02*
X0127Y02805D01*
X0058Y03D02*
X00586Y03006D01*
X0102D02*
X01024Y03002D01*
X01118Y02811D02*
X0115D01*
X0111Y0324D02*
X0115Y032D01*
X0271Y01902D02*
X0275Y01862D01*
X02718Y01473D02*
X0275D01*
X0262Y01667D02*
X02624Y01664D01*
X0218Y01662D02*
X02186Y01667D01*
X02865Y01473D02*
X0287Y01467D01*
X02038Y01927D02*
X02063Y01902D01*
X02038Y02612D02*
X02063Y02587D01*
X02865Y02158D02*
X02871Y02152D01*
X02181Y02347D02*
X02187Y02352D01*
X02621D02*
X02625Y02349D01*
X02719Y02158D02*
X02751D01*
X02711Y02587D02*
X02751Y02547D01*
X01111Y02585D02*
X01151Y02545D01*
X01119Y02156D02*
X01151D01*
X01021Y02351D02*
X01025Y02347D01*
X00581Y02345D02*
X00587Y02351D01*
X01265Y02156D02*
X01271Y0215D01*
X00438Y0261D02*
X00463Y02585D01*
X00438Y01925D02*
X00463Y019D01*
X01265Y01471D02*
X0127Y01465D01*
X0058Y0166D02*
X00586Y01666D01*
X0102D02*
X01024Y01662D01*
X01118Y01471D02*
X0115D01*
X0111Y019D02*
X0115Y0186D01*
X0271Y00562D02*
X0275Y00522D01*
X02718Y00133D02*
X0275D01*
X0262Y00327D02*
X02624Y00324D01*
X0218Y00322D02*
X02186Y00327D01*
X02865Y00133D02*
X0287Y00127D01*
X02038Y00587D02*
X02063Y00562D01*
X02038Y01272D02*
X02063Y01247D01*
X02865Y00818D02*
X02871Y00812D01*
X02181Y01007D02*
X02187Y01012D01*
X02621D02*
X02625Y01009D01*
X02719Y00818D02*
X02751D01*
X02711Y01247D02*
X02751Y01207D01*
X01111Y01245D02*
X01151Y01205D01*
X01119Y00816D02*
X01151D01*
X01021Y01011D02*
X01025Y01007D01*
X00581Y01005D02*
X00587Y01011D01*
X01265Y00816D02*
X01271Y0081D01*
X00438Y0127D02*
X00463Y01245D01*
X00438Y00585D02*
X00463Y0056D01*
X01265Y00131D02*
X0127Y00125D01*
X0058Y0032D02*
X00586Y00326D01*
X0102D02*
X01024Y00322D01*
X01118Y00131D02*
X0115D01*
X0111Y0056D02*
X0115Y0052D01*
G54D12*
X02677Y03242D02*
X0271D01*
X02752Y03201D02*
X02985D01*
X02677Y02772D02*
X02718Y02813D01*
X01935Y03192D02*
Y03267D01*
X0182Y03077D02*
X01935Y03192D01*
X02205Y03202D02*
X02357D01*
X02165Y03242D02*
X02205Y03202D01*
X02624Y03004D02*
X02985D01*
X0226Y03007D02*
X0262D01*
X02186D02*
X0226D01*
X02107Y03002D02*
X0218D01*
X0287Y02807D02*
X02985D01*
X0275Y02813D02*
X02865D01*
X02063Y03242D02*
X02165D01*
X01935Y03267D02*
X02038D01*
X02165Y02772D02*
X02206Y02813D01*
X02357*
X01685Y03218D02*
X01735Y03267D01*
X0182Y02877D02*
X01925Y02772D01*
X02165*
X01685Y03012D02*
X0182Y02877D01*
X00085Y0301D02*
X0022Y02875D01*
X00325Y0277D02*
X00565D01*
X0022Y02875D02*
X00325Y0277D01*
X00085Y03216D02*
X00135Y03265D01*
X00606Y02811D02*
X00757D01*
X00565Y0277D02*
X00606Y02811D01*
X00335Y03265D02*
X00438D01*
X00463Y0324D02*
X00565D01*
X0115Y02811D02*
X01265D01*
X0127Y02805D02*
X01385D01*
X00507Y03D02*
X0058D01*
X00586Y03006D02*
X0066D01*
X0102*
X01024Y03002D02*
X01385D01*
X00565Y0324D02*
X00605Y032D01*
X00757*
X0022Y03075D02*
X00335Y0319D01*
Y03265*
X01077Y0277D02*
X01118Y02811D01*
X01152Y03199D02*
X01385D01*
X01077Y0324D02*
X0111D01*
X02677Y01902D02*
X0271D01*
X02752Y01861D02*
X02985D01*
X02677Y01432D02*
X02718Y01473D01*
X01935Y01852D02*
Y01927D01*
X0182Y01737D02*
X01935Y01852D01*
X02205Y01862D02*
X02357D01*
X02165Y01902D02*
X02205Y01862D01*
X02624Y01664D02*
X02985D01*
X0226Y01667D02*
X0262D01*
X02186D02*
X0226D01*
X02107Y01662D02*
X0218D01*
X0287Y01467D02*
X02985D01*
X0275Y01473D02*
X02865D01*
X02063Y01902D02*
X02165D01*
X01935Y01927D02*
X02038D01*
X02165Y01432D02*
X02206Y01473D01*
X02357*
X01685Y01878D02*
X01735Y01927D01*
X0182Y01537D02*
X01925Y01432D01*
X02165*
X01685Y01672D02*
X0182Y01537D01*
X01926Y02117D02*
X02166D01*
X01821Y02222D02*
X01926Y02117D01*
X02207Y02158D02*
X02358D01*
X02166Y02117D02*
X02207Y02158D01*
X01936Y02612D02*
X02038D01*
X02063Y02587D02*
X02166D01*
X02751Y02158D02*
X02865D01*
X02871Y02152D02*
X02986D01*
X02108Y02347D02*
X02181D01*
X02187Y02352D02*
X02261D01*
X02621*
X02625Y02349D02*
X02986D01*
X02166Y02587D02*
X02206Y02547D01*
X02358*
X01821Y02422D02*
X01936Y02537D01*
Y02612*
X02678Y02117D02*
X02719Y02158D01*
X02753Y02546D02*
X02986D01*
X02678Y02587D02*
X02711D01*
X01695Y02348D02*
X01821Y02222D01*
X01695Y02572D02*
X01735Y02612D01*
X00095Y0257D02*
X00135Y0261D01*
X00095Y02346D02*
X00221Y0222D01*
X01078Y02585D02*
X01111D01*
X01153Y02544D02*
X01386D01*
X01078Y02115D02*
X01119Y02156D01*
X00336Y02535D02*
Y0261D01*
X00221Y0242D02*
X00336Y02535D01*
X00606Y02545D02*
X00758D01*
X00566Y02585D02*
X00606Y02545D01*
X01025Y02347D02*
X01386D01*
X00661Y02351D02*
X01021D01*
X00587D02*
X00661D01*
X00508Y02345D02*
X00581D01*
X01271Y0215D02*
X01386D01*
X01151Y02156D02*
X01265D01*
X00463Y02585D02*
X00566D01*
X00336Y0261D02*
X00438D01*
X00566Y02115D02*
X00607Y02156D01*
X00758*
X00221Y0222D02*
X00326Y02115D01*
X00566*
X00085Y0167D02*
X0022Y01535D01*
X00325Y0143D02*
X00565D01*
X0022Y01535D02*
X00325Y0143D01*
X00085Y01876D02*
X00135Y01925D01*
X00606Y01471D02*
X00757D01*
X00565Y0143D02*
X00606Y01471D01*
X00335Y01925D02*
X00438D01*
X00463Y019D02*
X00565D01*
X0115Y01471D02*
X01265D01*
X0127Y01465D02*
X01385D01*
X00507Y0166D02*
X0058D01*
X00586Y01666D02*
X0066D01*
X0102*
X01024Y01662D02*
X01385D01*
X00565Y019D02*
X00605Y0186D01*
X00757*
X0022Y01735D02*
X00335Y0185D01*
Y01925*
X01077Y0143D02*
X01118Y01471D01*
X01152Y01859D02*
X01385D01*
X01077Y019D02*
X0111D01*
X02677Y00562D02*
X0271D01*
X02752Y00521D02*
X02985D01*
X02677Y00092D02*
X02718Y00133D01*
X01935Y00512D02*
Y00587D01*
X0182Y00397D02*
X01935Y00512D01*
X02205Y00522D02*
X02357D01*
X02165Y00562D02*
X02205Y00522D01*
X02624Y00324D02*
X02985D01*
X0226Y00327D02*
X0262D01*
X02186D02*
X0226D01*
X02107Y00322D02*
X0218D01*
X0287Y00127D02*
X02985D01*
X0275Y00133D02*
X02865D01*
X02063Y00562D02*
X02165D01*
X01935Y00587D02*
X02038D01*
X02165Y00092D02*
X02206Y00133D01*
X02357*
X01685Y00538D02*
X01735Y00587D01*
X0182Y00197D02*
X01925Y00092D01*
X02165*
X01685Y00332D02*
X0182Y00197D01*
X01926Y00777D02*
X02166D01*
X01821Y00882D02*
X01926Y00777D01*
X02207Y00818D02*
X02358D01*
X02166Y00777D02*
X02207Y00818D01*
X01936Y01272D02*
X02038D01*
X02063Y01247D02*
X02166D01*
X02751Y00818D02*
X02865D01*
X02871Y00812D02*
X02986D01*
X02108Y01007D02*
X02181D01*
X02187Y01012D02*
X02261D01*
X02621*
X02625Y01009D02*
X02986D01*
X02166Y01247D02*
X02206Y01207D01*
X02358*
X01821Y01082D02*
X01936Y01197D01*
Y01272*
X02678Y00777D02*
X02719Y00818D01*
X02753Y01206D02*
X02986D01*
X02678Y01247D02*
X02711D01*
X01695Y01008D02*
X01821Y00882D01*
X01695Y01232D02*
X01735Y01272D01*
X00095Y0123D02*
X00135Y0127D01*
X00095Y01006D02*
X00221Y0088D01*
X01078Y01245D02*
X01111D01*
X01153Y01204D02*
X01386D01*
X01078Y00775D02*
X01119Y00816D01*
X00336Y01195D02*
Y0127D01*
X00221Y0108D02*
X00336Y01195D01*
X00606Y01205D02*
X00758D01*
X00566Y01245D02*
X00606Y01205D01*
X01025Y01007D02*
X01386D01*
X00661Y01011D02*
X01021D01*
X00587D02*
X00661D01*
X00508Y01005D02*
X00581D01*
X01271Y0081D02*
X01386D01*
X01151Y00816D02*
X01265D01*
X00463Y01245D02*
X00566D01*
X00336Y0127D02*
X00438D01*
X00566Y00775D02*
X00607Y00816D01*
X00758*
X00221Y0088D02*
X00326Y00775D01*
X00566*
X00085Y0033D02*
X0022Y00195D01*
X00325Y0009D02*
X00565D01*
X0022Y00195D02*
X00325Y0009D01*
X00085Y00536D02*
X00135Y00585D01*
X00606Y00131D02*
X00757D01*
X00565Y0009D02*
X00606Y00131D01*
X00335Y00585D02*
X00438D01*
X00463Y0056D02*
X00565D01*
X0115Y00131D02*
X01265D01*
X0127Y00125D02*
X01385D01*
X00507Y0032D02*
X0058D01*
X00586Y00326D02*
X0066D01*
X0102*
X01024Y00322D02*
X01385D01*
X00565Y0056D02*
X00605Y0052D01*
X00757*
X0022Y00395D02*
X00335Y0051D01*
Y00585*
X01077Y0009D02*
X01118Y00131D01*
X01152Y00519D02*
X01385D01*
X01077Y0056D02*
X0111D01*
G54D13*
X0275Y03202D02*
X02752Y03201D01*
X0115Y032D02*
X01152Y03199D01*
X0275Y01862D02*
X02752Y01861D01*
X02751Y02547D02*
X02753Y02546D01*
X01151Y02545D02*
X01153Y02544D01*
X0115Y0186D02*
X01152Y01859D01*
X0275Y00522D02*
X02752Y00521D01*
X02751Y01207D02*
X02753Y01206D01*
X01151Y01205D02*
X01153Y01204D01*
X0115Y0052D02*
X01152Y00519D01*
G54D14*
X01685Y03012D02*
Y03218D01*
X00085Y0301D02*
Y03216D01*
X01685Y01672D02*
Y01878D01*
X01695Y02348D02*
Y02572D01*
X00095Y02346D02*
Y0257D01*
X00085Y0167D02*
Y01876D01*
X01685Y00332D02*
Y00538D01*
X01695Y01008D02*
Y01232D01*
X00095Y01006D02*
Y0123D01*
X00085Y0033D02*
Y00536D01*
G54D15*
X02985Y03004D03*
Y02807D03*
Y03201D03*
X0182Y03077D03*
X0022Y03075D03*
X01385Y03002D03*
Y02805D03*
Y03199D03*
X02985Y01664D03*
Y01467D03*
Y01861D03*
X0182Y01737D03*
X01821Y02422D03*
X02986Y02349D03*
Y02152D03*
Y02546D03*
X01386Y02347D03*
Y0215D03*
Y02544D03*
X00221Y0242D03*
X0022Y01735D03*
X01385Y01662D03*
Y01465D03*
Y01859D03*
X02985Y00324D03*
Y00127D03*
Y00521D03*
X0182Y00397D03*
X01821Y01082D03*
X02986Y01009D03*
Y00812D03*
Y01206D03*
X01386Y01007D03*
Y0081D03*
Y01204D03*
X00221Y0108D03*
X0022Y00395D03*
X01385Y00322D03*
Y00125D03*
Y00519D03*
G54D16*
X0275Y03202D03*
Y02813D03*
X0226Y03007D03*
X0115Y032D03*
Y02811D03*
X0066Y03006D03*
X0275Y01862D03*
Y01473D03*
X0226Y01667D03*
X02751Y02547D03*
Y02158D03*
X02261Y02352D03*
X01151Y02545D03*
Y02156D03*
X00661Y02351D03*
X0115Y0186D03*
Y01471D03*
X0066Y01666D03*
X0275Y00522D03*
Y00133D03*
X0226Y00327D03*
X02751Y01207D03*
Y00818D03*
X02261Y01012D03*
X01151Y01205D03*
Y00816D03*
X00661Y01011D03*
X0115Y0052D03*
Y00131D03*
X0066Y00326D03*
G54D17*
X02357Y03202D03*
Y02813D03*
X00757Y032D03*
Y02811D03*
X02357Y01862D03*
Y01473D03*
X02358Y02547D03*
Y02158D03*
X00758Y02545D03*
Y02156D03*
X00757Y0186D03*
Y01471D03*
X02357Y00522D03*
Y00133D03*
X02358Y01207D03*
Y00818D03*
X00758Y01205D03*
Y00816D03*
X00757Y0052D03*
Y00131D03*
G54D18*
X02677Y02772D03*
X02107Y03002D03*
X02677Y03242D03*
X02165D03*
Y02772D03*
X01735Y03267D03*
X00135Y03265D03*
X01077Y0277D03*
X00507Y03D03*
X01077Y0324D03*
X00565D03*
Y0277D03*
X02677Y01432D03*
X02107Y01662D03*
X02677Y01902D03*
X02165D03*
Y01432D03*
X01735Y01927D03*
X01735Y02612D03*
X02678Y02117D03*
X02108Y02347D03*
X02678Y02587D03*
X02166D03*
Y02117D03*
X01078Y02115D03*
X00508Y02345D03*
X01078Y02585D03*
X00566D03*
Y02115D03*
X00135Y0261D03*
X00135Y01925D03*
X01077Y0143D03*
X00507Y0166D03*
X01077Y019D03*
X00565D03*
Y0143D03*
X02677Y00092D03*
X02107Y00322D03*
X02677Y00562D03*
X02165D03*
Y00092D03*
X01735Y00587D03*
X01735Y01272D03*
X02678Y00777D03*
X02108Y01007D03*
X02678Y01247D03*
X02166D03*
Y00777D03*
X01078Y00775D03*
X00508Y01005D03*
X01078Y01245D03*
X00566D03*
Y00775D03*
X00135Y0127D03*
X00135Y00585D03*
X01077Y0009D03*
X00507Y0032D03*
X01077Y0056D03*
X00565D03*
Y0009D03*
G54D19*
X0182Y02877D03*
X0022Y02875D03*
X0182Y01537D03*
X01821Y02222D03*
X00221Y0222D03*
X0022Y01535D03*
X0182Y00197D03*
X01821Y00882D03*
X00221Y0088D03*
X0022Y00195D03*
G54D20*
X01935Y03267D03*
X00335Y03265D03*
X01935Y01927D03*
X01936Y02612D03*
X00336Y0261D03*
X00335Y01925D03*
X01935Y00587D03*
X01936Y01272D03*
X00336Y0127D03*
X00335Y00585D03*
M02*