%FSTAX23Y23*%
%MOIN*%
%SFA1B1*%

%IPPOS*%
%AMD16*
4,1,8,0.045300,0.018700,0.018700,0.045300,-0.018700,0.045300,-0.045300,0.018700,-0.045300,-0.018700,-0.018700,-0.045300,0.018700,-0.045300,0.045300,-0.018700,0.045300,0.018700,0.0*
%
%ADD10C,0.019685*%
%ADD11C,0.039370*%
%ADD12C,0.118110*%
%ADD13C,0.078740*%
%ADD14O,0.098425X0.060000*%
%ADD15C,0.090551*%
G04~CAMADD=16~4~0.0~0.0~905.7~905.7~0.0~265.3~0~0.0~0.0~0.0~0.0~0~0.0~0.0~0.0~0.0~0~0.0~0.0~0.0~315.0~905.7~905.7*
%ADD16D16*%
%ADD17R,0.078740X0.078740*%
%LNdual_channel_common_vcc_pcb_x4-1*%
%LPD*%
G54D10*
X0Y013D02*
X0164D01*
X03295*
X0164Y0D02*
Y02605D01*
X0Y0D02*
Y02605D01*
Y0D02*
X03295D01*
Y02605*
X0D02*
X03295D01*
X01023Y01664D02*
X01035Y01652D01*
X01268Y01469D02*
X01281Y01455D01*
X01268Y02478D02*
X0128Y02465D01*
X02923Y02477D02*
X02935Y02464D01*
X02923Y01467D02*
X02936Y01453D01*
X02678Y01662D02*
X0269Y0165D01*
X02678Y00334D02*
X0269Y00322D01*
X02923Y00139D02*
X02936Y00125D01*
X02923Y01148D02*
X02935Y01135D01*
X01268Y0115D02*
X0128Y01137D01*
X01268Y0014D02*
X01281Y00127D01*
X01023Y00335D02*
X01035Y00324D01*
G54D11*
X00401Y02519D02*
X00549D01*
X00269Y02049D02*
X00549D01*
X0081Y02169D02*
X0087Y02109D01*
X0041Y02169D02*
X0081D01*
X00362Y02217D02*
X0041Y02169D01*
X00589Y01858D02*
X00755D01*
X00549Y01899D02*
X00589Y01858D01*
X0016Y01429D02*
X003D01*
X00055Y01534D02*
X0016Y01429D01*
X00055Y01534D02*
Y02374D01*
X0016Y02479*
X0043Y01899D02*
X00549D01*
X00345Y01814D02*
X0043Y01899D01*
X00345Y01584D02*
Y01814D01*
X00755Y01858D02*
X0087Y01973D01*
Y02109*
X0024Y02217D02*
X00362D01*
X0024D02*
X00361Y02338D01*
Y02479*
X00401Y02519*
X00549D02*
X00715D01*
X00755Y02478*
X00549Y01429D02*
X00715D01*
X00755Y01469*
X00145Y01584D02*
Y01925D01*
X0024Y0202*
X00269Y02049*
X00549D02*
X00715D01*
X00755Y02089*
X0024Y01489D02*
Y01824D01*
Y01489D02*
X003Y01429D01*
X00549*
X01955Y01427D02*
X02204D01*
X01895Y01487D02*
X01955Y01427D01*
X01895Y01487D02*
Y01822D01*
X0237Y02047D02*
X0241Y02087D01*
X02204Y02047D02*
X0237D01*
X01895Y02019D02*
X01924Y02047D01*
X018Y01923D02*
X01895Y02019D01*
X018Y01582D02*
Y01923D01*
X0237Y01427D02*
X0241Y01467D01*
X02204Y01427D02*
X0237D01*
X0237Y02517D02*
X0241Y02477D01*
X02204Y02517D02*
X0237D01*
X02016Y02477D02*
X02056Y02517D01*
X02016Y02336D02*
Y02477D01*
X01895Y02215D02*
X02016Y02336D01*
X01895Y02215D02*
X02017D01*
X02525Y01972D02*
Y02107D01*
X0241Y01857D02*
X02525Y01972D01*
X02Y01582D02*
Y01812D01*
X02085Y01897*
X02204*
X0171Y02372D02*
X01815Y02477D01*
X0171Y01532D02*
Y02372D01*
Y01532D02*
X01815Y01427D01*
X01955*
X02204Y01897D02*
X02244Y01857D01*
X0241*
X02017Y02215D02*
X02065Y02167D01*
X02465*
X02525Y02107*
X01924Y02047D02*
X02204D01*
X02056Y02517D02*
X02204D01*
X02056Y01189D02*
X02204D01*
X01924Y00719D02*
X02204D01*
X02465Y00839D02*
X02525Y00779D01*
X02065Y00839D02*
X02465D01*
X02017Y00887D02*
X02065Y00839D01*
X02244Y00528D02*
X0241D01*
X02204Y00569D02*
X02244Y00528D01*
X01815Y00099D02*
X01955D01*
X0171Y00204D02*
X01815Y00099D01*
X0171Y00204D02*
Y01044D01*
X01815Y01149*
X02085Y00569D02*
X02204D01*
X02Y00484D02*
X02085Y00569D01*
X02Y00254D02*
Y00484D01*
X0241Y00528D02*
X02525Y00643D01*
Y00779*
X01895Y00887D02*
X02017D01*
X01895D02*
X02016Y01008D01*
Y01149*
X02056Y01189*
X02204D02*
X0237D01*
X0241Y01148*
X02204Y00099D02*
X0237D01*
X0241Y00139*
X018Y00254D02*
Y00595D01*
X01895Y0069*
X01924Y00719*
X02204D02*
X0237D01*
X0241Y00759*
X01895Y00159D02*
Y00494D01*
Y00159D02*
X01955Y00099D01*
X02204*
X003Y001D02*
X00549D01*
X0024Y0016D02*
X003Y001D01*
X0024Y0016D02*
Y00495D01*
X00715Y0072D02*
X00755Y0076D01*
X00549Y0072D02*
X00715D01*
X0024Y00692D02*
X00269Y0072D01*
X00145Y00596D02*
X0024Y00692D01*
X00145Y00255D02*
Y00596D01*
X00715Y001D02*
X00755Y0014D01*
X00549Y001D02*
X00715D01*
X00715Y0119D02*
X00755Y0115D01*
X00549Y0119D02*
X00715D01*
X00361Y0115D02*
X00401Y0119D01*
X00361Y0101D02*
Y0115D01*
X0024Y00889D02*
X00361Y0101D01*
X0024Y00889D02*
X00362D01*
X0087Y00645D02*
Y0078D01*
X00755Y0053D02*
X0087Y00645D01*
X00345Y00255D02*
Y00485D01*
X0043Y0057*
X00549*
X00055Y01045D02*
X0016Y0115D01*
X00055Y00205D02*
Y01045D01*
Y00205D02*
X0016Y001D01*
X003*
X00549Y0057D02*
X00589Y0053D01*
X00755*
X00362Y00889D02*
X0041Y0084D01*
X0081*
X0087Y0078*
X00269Y0072D02*
X00549D01*
X00401Y0119D02*
X00549D01*
G54D12*
X00579Y02284D02*
X00659D01*
X01386*
X014Y02269*
X00579Y01664D02*
X00659D01*
X0049Y01659D02*
X00579Y01664D01*
X0106Y01899D02*
X01109D01*
X01149Y01858*
X0106Y01429D02*
X01109D01*
X01149Y01469*
X0049Y02279D02*
X00579Y02284D01*
X0106Y02519D02*
X01109D01*
X01149Y02478*
X0106Y02049D02*
X01109D01*
X01149Y02089*
X01035Y01652D02*
X014D01*
X00659Y01664D02*
X01023D01*
X01279Y01849D02*
X014D01*
X0127Y01858D02*
X01279Y01849D01*
X01149Y01858D02*
X0127D01*
X01281Y01455D02*
X014D01*
X01149Y01469D02*
X01268D01*
X0128Y02465D02*
X014D01*
X01149Y02478D02*
X01268D01*
X01282Y02072D02*
X014D01*
X01265Y02089D02*
X01282Y02072D01*
X01149Y02089D02*
X01265D01*
X02804Y02087D02*
X0292D01*
X02937Y0207*
X03055*
X02804Y02477D02*
X02923D01*
X02935Y02464D02*
X03055D01*
X02804Y01467D02*
X02923D01*
X02936Y01453D02*
X03055D01*
X02804Y01857D02*
X02925D01*
X02934Y01847*
X03055*
X02314Y01662D02*
X02678D01*
X0269Y0165D02*
X03055D01*
X02764Y02047D02*
X02804Y02087D01*
X02715Y02047D02*
X02764D01*
X02764Y02517D02*
X02804Y02477D01*
X02715Y02517D02*
X02764D01*
X02145Y02277D02*
X02234Y02282D01*
X02764Y01427D02*
X02804Y01467D01*
X02715Y01427D02*
X02764D01*
X02764Y01897D02*
X02804Y01857D01*
X02715Y01897D02*
X02764D01*
X02145Y01657D02*
X02234Y01662D01*
X02314*
X03041Y02282D02*
X03055Y02267D01*
X02314Y02282D02*
X03041D01*
X02234D02*
X02314D01*
X02234Y00954D02*
X02314D01*
X03041*
X03055Y00939*
X02234Y00334D02*
X02314D01*
X02145Y00329D02*
X02234Y00334D01*
X02715Y00569D02*
X02764D01*
X02804Y00528*
X02715Y00099D02*
X02764D01*
X02804Y00139*
X02145Y00949D02*
X02234Y00954D01*
X02715Y01189D02*
X02764D01*
X02804Y01148*
X02715Y00719D02*
X02764D01*
X02804Y00759*
X0269Y00322D02*
X03055D01*
X02314Y00334D02*
X02678D01*
X02934Y00519D02*
X03055D01*
X02925Y00528D02*
X02934Y00519D01*
X02804Y00528D02*
X02925D01*
X02936Y00125D02*
X03055D01*
X02804Y00139D02*
X02923D01*
X02935Y01135D02*
X03055D01*
X02804Y01148D02*
X02923D01*
X02937Y00742D02*
X03055D01*
X0292Y00759D02*
X02937Y00742D01*
X02804Y00759D02*
X0292D01*
X01149Y0076D02*
X01265D01*
X01282Y00744*
X014*
X01149Y0115D02*
X01268D01*
X0128Y01137D02*
X014D01*
X01149Y0014D02*
X01268D01*
X01281Y00127D02*
X014D01*
X01149Y0053D02*
X0127D01*
X01279Y0052*
X014*
X00659Y00335D02*
X01023D01*
X01035Y00324D02*
X014D01*
X01109Y0072D02*
X01149Y0076D01*
X0106Y0072D02*
X01109D01*
X01109Y0119D02*
X01149Y0115D01*
X0106Y0119D02*
X01109D01*
X0049Y0095D02*
X00579Y00955D01*
X01109Y001D02*
X01149Y0014D01*
X0106Y001D02*
X01109D01*
X01109Y0057D02*
X01149Y0053D01*
X0106Y0057D02*
X01109D01*
X0049Y0033D02*
X00579Y00335D01*
X00659*
X01386Y00955D02*
X014Y0094D01*
X00659Y00955D02*
X01386D01*
X00579D02*
X00659D01*
G54D13*
X014Y02465D03*
Y02072D03*
Y02269D03*
Y01849D03*
Y01455D03*
Y01652D03*
X0024Y01824D03*
Y02217D03*
Y0202D03*
X00145Y01584D03*
X0016Y02479D03*
X01815Y02477D03*
X018Y01582D03*
X01895Y01822D03*
Y02215D03*
Y02019D03*
X03055Y01847D03*
Y01453D03*
Y0165D03*
Y02464D03*
Y0207D03*
Y02267D03*
Y01135D03*
Y00742D03*
Y00939D03*
Y00519D03*
Y00125D03*
Y00322D03*
X01895Y00494D03*
Y00887D03*
Y0069D03*
X018Y00254D03*
X01815Y01149D03*
X00145Y00255D03*
X0024Y00495D03*
Y00889D03*
Y00692D03*
X0016Y0115D03*
X014Y01137D03*
Y00744D03*
Y0094D03*
Y0052D03*
Y00127D03*
Y00324D03*
G54D14*
X00549Y02049D03*
Y02519D03*
X0106D03*
X0049Y02279D03*
X0106Y02049D03*
X00549Y01429D03*
Y01899D03*
X0106D03*
X0049Y01659D03*
X0106Y01429D03*
X02204Y01427D03*
Y01897D03*
X02715D03*
X02145Y01657D03*
X02715Y01427D03*
X02204Y02047D03*
Y02517D03*
X02715D03*
X02145Y02277D03*
X02715Y02047D03*
X02204Y00719D03*
Y01189D03*
X02715D03*
X02145Y00949D03*
X02715Y00719D03*
X02204Y00099D03*
Y00569D03*
X02715D03*
X02145Y00329D03*
X02715Y00099D03*
X00549Y0072D03*
Y0119D03*
X0106D03*
X0049Y0095D03*
X0106Y0072D03*
X00549Y001D03*
Y0057D03*
X0106D03*
X0049Y0033D03*
X0106Y001D03*
G54D15*
X00659Y02284D03*
X01149Y02089D03*
Y02478D03*
X00659Y01664D03*
X01149Y01469D03*
Y01858D03*
X02314Y01662D03*
X02804Y01467D03*
Y01857D03*
X02314Y02282D03*
X02804Y02087D03*
Y02477D03*
X02314Y00954D03*
X02804Y00759D03*
Y01148D03*
X02314Y00334D03*
X02804Y00139D03*
Y00528D03*
X00659Y00955D03*
X01149Y0076D03*
Y0115D03*
X00659Y00335D03*
X01149Y0014D03*
Y0053D03*
G54D16*
X00755Y02089D03*
Y02478D03*
Y01469D03*
Y01858D03*
X0241Y01467D03*
Y01857D03*
Y02087D03*
Y02477D03*
Y00759D03*
Y01148D03*
Y00139D03*
Y00528D03*
X00755Y0076D03*
Y0115D03*
Y0014D03*
Y0053D03*
G54D17*
X00345Y01584D03*
X00361Y02479D03*
X02016Y02477D03*
X02Y01582D03*
Y00254D03*
X02016Y01149D03*
X00345Y00255D03*
X00361Y0115D03*
M02*