%FSLAX23Y23*%
%MOMM*%
%SFA1B1*%

%IPPOS*%
%AMD16*
4,1,8,1.150620,0.474980,0.474980,1.150620,-0.474980,1.150620,-1.150620,0.474980,-1.150620,-0.474980,-0.474980,-1.150620,0.474980,-1.150620,1.150620,-0.474980,1.150620,0.474980,0.0*
%
%AMD18*
4,1,8,-1.501140,-0.622300,-0.622300,-1.501140,0.622300,-1.501140,1.501140,-0.622300,1.501140,0.622300,0.622300,1.501140,-0.622300,1.501140,-1.501140,0.622300,-1.501140,-0.622300,0.0*
%
%ADD10C,2.999994*%
%ADD11C,2.499995*%
%ADD12C,0.499999*%
%ADD13C,0.999998*%
%ADD14C,2.999994*%
%ADD15C,2.299995*%
G04~CAMADD=16~4~0.0~0.0~905.7~905.7~0.0~265.3~0~0.0~0.0~0.0~0.0~0~0.0~0.0~0.0~0.0~0~0.0~0.0~0.0~315.0~905.7~905.7*
%ADD16D16*%
%ADD17C,1.999996*%
G04~CAMADD=18~4~0.0~0.0~1181.0~1181.0~0.0~345.9~0~0.0~0.0~0.0~0.0~0~0.0~0.0~0.0~0.0~0~0.0~0.0~0.0~135.0~1181.0~1181.0*
%ADD18D18*%
%ADD19R,1.999996X1.999996*%
%LNpcb2-1*%
%LPD*%
G54D10*
X1778Y8255D02*
X5207Y4826D01*
X7874Y2159D02*
X13970D01*
X5207Y4826D02*
X7874Y2159D01*
X1778Y13484D02*
X3024Y14732D01*
X14991Y3180D02*
X18828D01*
X13970Y2159D02*
X14991Y3180D01*
X8128Y14732D02*
X10718D01*
X11353Y14097D02*
X13970D01*
X28829Y3180D02*
X31724D01*
X31857Y3048D02*
X34798D01*
X12493Y8001D02*
X14351D01*
X14480Y8130D02*
X16378D01*
X25527*
X25609Y8047D02*
X34798D01*
X13970Y14097D02*
X14986Y13081D01*
X18828*
X5207Y9906D02*
X8128Y12827D01*
Y14732*
X26971Y2159D02*
X27993Y3180D01*
X28861Y13047D02*
X34798D01*
X26971Y14097D02*
X27813D01*
G54D11*
X1778Y8255D02*
Y13484D01*
G54D12*
X10718Y14732D02*
X11353Y14097D01*
X31724Y3180D02*
X31857Y3048D01*
X14351Y8001D02*
X14480Y8130D01*
X25527D02*
X25609Y8047D01*
X27993Y3180D02*
X28829D01*
X27813Y14097D02*
X28829Y13081D01*
G54D13*
X28829Y13081D02*
X28861Y13047D01*
G54D14*
X34798Y13047D03*
Y3048D03*
Y8047D03*
X5207Y9906D03*
G54D15*
X16378Y8130D03*
X28829Y3180D03*
Y13081D03*
G54D16*
X18828Y3180D03*
Y13081D03*
G54D17*
X13970Y2159D03*
Y14097D03*
X26971D03*
X12493Y8001D03*
X26971Y2159D03*
X3024Y14732D03*
G54D18*
X5207Y4826D03*
G54D19*
X8128Y14732D03*
M02*