M48
;Layer_Color=9474304
;FILE_FORMAT=4:3
METRIC,LZ
;TYPE=PLATED
T1F00S00C0.762
T2F00S00C1.200
T3F00S00C1.300
%
T01
X003556Y0003208
Y0008208
X0026924Y000254
X0013922
X0012446Y0008382
X0013922Y0014478
Y0018288
X0012446Y002413
X0013922Y0030226
X0026924
Y0018288
Y0014478
X0006096Y0012573
Y0017573
Y0022573
X003556Y0023876
Y0028876
Y0018876
Y0013208
T02
X000366Y0006477
X0008763
X0009167Y002921
X0004064
T03
X0019177Y0003556
X0016727Y0008506
X0029177Y0003556
Y0013456
Y0019304
Y0029204
X0019177
X0016727Y0024254
X0019177Y0019304
Y0013456
M30
