M48
;Layer_Color=9474304
;FILE_FORMAT=4:3
METRIC,LZ
;TYPE=PLATED
T1F00S00C0.762
T2F00S00C1.200
T3F00S00C1.300
%
T01
X0076708Y0003161
Y0008161
X0068072Y0002493
X005507
X0053594Y0008335
X003556Y0008208
Y0003208
X0026924Y000254
X0013922
X0012446Y0008382
X0013922Y0014478
Y0018288
X0012446Y002413
X0013922Y0030226
X0026924
Y0018288
Y0014478
X0006096Y0012573
Y0017573
Y0022573
X003556Y0023876
Y0028876
Y0018876
Y0013208
X0047244Y0012526
Y0017526
Y0022526
X0053594Y0024083
X005507Y0018241
Y0014431
X0068072
Y0018241
Y0030179
X005507
X0076708Y0028829
Y0023829
Y0018829
Y0013161
T02
X0044808Y000643
X0049911
X0008763Y0006477
X000366
X0004064Y002921
X0009167
X0045212Y0029163
X0050315
T03
X0060325Y0003509
X0057875Y0008459
X0070325Y0003509
X0029177Y0003556
X0019177
X0016727Y0008506
X0019177Y0013456
Y0019304
X0016727Y0024254
X0019177Y0029204
X0029177
Y0019304
Y0013456
X0060325Y0013409
Y0019257
X0057875Y0024207
X0060325Y0029157
X0070325
Y0019257
Y0013409
M30
