M48
;Layer_Color=9474304
;FILE_FORMAT=4:3
METRIC,LZ
;TYPE=PLATED
T1F00S00C0.762
T2F00S00C1.200
T3F00S00C1.300
%
T01
X0077597Y0003161
Y0008161
X0068961Y0002493
X0055959
X0054483Y0008335
X003556Y0008208
Y0003208
X0026924Y000254
X0013922
X0012446Y0008382
X0013922Y0014478
Y0018288
X0012446Y002413
X0013922Y0030226
Y0036275
X0012446Y0042117
X0013922Y0048213
X0006096Y0046308
Y0051308
X0026924Y0048213
Y0036275
Y0030226
Y0018288
Y0014478
X0006096Y0012573
Y0017573
Y0022573
X003556Y0023876
Y0028876
Y0036943
Y0041943
Y0046943
X0048133Y0046261
Y0051261
X0055959Y0048166
X0054483Y004207
X0055959Y0036228
Y0030179
X0054483Y0024083
X0055959Y0018241
Y0014431
X0048133Y0012526
Y0017526
Y0022526
X003556Y0018876
Y0013208
X0068961Y0014431
Y0018241
Y0030179
Y0036228
Y0048166
X0077597Y0046896
Y0041896
Y0036896
Y0028829
Y0023829
Y0018829
Y0013161
Y0052564
Y0057564
Y0062564
X0068961Y0063914
Y0051976
X0055959
X0054483Y0057818
X0055959Y0063914
X0048133Y0056261
X003556Y0057611
Y0062611
Y0052611
X0026924Y0052023
Y0063961
X0013922
X0012446Y0057865
X0013922Y0052023
X0006096Y0056308
T02
X0045697Y000643
X00508
X0008763Y0006477
X000366
X0004064Y002921
X0009167
X0008763Y0040212
X000366
X0045697Y0040165
X00508
X0051204Y0029163
X0046101
Y0062898
X0051204
X0009167Y0062945
X0004064
T03
X0061214Y0003509
X0058764Y0008459
X0071214Y0003509
X0029177Y0003556
X0019177
X0016727Y0008506
X0019177Y0013456
Y0019304
X0016727Y0024254
X0019177Y0029204
Y0037291
X0016727Y0042241
X0019177Y0047191
X0029177
Y0037291
Y0029204
Y0019304
Y0013456
X0061214Y0013409
Y0019257
X0058764Y0024207
X0061214Y0029157
Y0037244
X0058764Y0042194
X0061214Y0047144
X0071214
Y0037244
Y0029157
Y0019257
Y0013409
Y0052992
Y0062892
X0061214
X0058764Y0057942
X0061214Y0052992
X0029177Y0053039
Y0062939
X0019177
X0016727Y0057989
X0019177Y0053039
M30
