G04 Layer_Physical_Order=2*
G04 Layer_Color=16711680*
%FSLAX43Y43*%
%MOMM*%
G71*
G01*
G75*
%ADD10C,0.500*%
%ADD11C,1.000*%
%ADD12C,3.000*%
%ADD13C,2.000*%
%ADD14O,2.500X1.524*%
%ADD15C,2.300*%
%ADD16P,2.490X8X292.5*%
%ADD17R,2.000X2.000*%
D10*
X40640Y254D02*
Y32385D01*
X0Y0D02*
Y32385D01*
Y0D02*
X82423D01*
Y32385D01*
X0D02*
X82423D01*
X67132Y8459D02*
X67430Y8161D01*
X73330Y3509D02*
X73678Y3161D01*
X73330Y29157D02*
X73658Y28829D01*
X32182Y29204D02*
X32510Y28876D01*
X32182Y3556D02*
X32530Y3208D01*
X25984Y8506D02*
X26282Y8208D01*
D11*
X51331Y30179D02*
X55070D01*
X47959Y18241D02*
X55070D01*
X61722Y21289D02*
X63246Y19765D01*
X51562Y21289D02*
X61722D01*
X50325Y22526D02*
X51562Y21289D01*
X56092Y13409D02*
X60325D01*
X55070Y14431D02*
X56092Y13409D01*
X45212Y2493D02*
X48768D01*
X42545Y5160D02*
X45212Y2493D01*
X42545Y5160D02*
Y26496D01*
X45212Y29163D01*
X52070Y14431D02*
X55070D01*
X49911Y12272D02*
X52070Y14431D01*
X49911Y6430D02*
Y12272D01*
X60325Y13409D02*
X63246Y16330D01*
Y19765D01*
X47244Y22526D02*
X50325D01*
X47244D02*
X50315Y25597D01*
Y29163D01*
X51331Y30179D01*
X55070D02*
X59303D01*
X60325Y29157D01*
X55070Y2493D02*
X59309D01*
X60325Y3509D01*
X44808Y6430D02*
Y15090D01*
X47244Y17526D01*
X47959Y18241D01*
X55070D02*
X59309D01*
X60325Y19257D01*
X47244Y4017D02*
Y12526D01*
Y4017D02*
X48768Y2493D01*
X55070D01*
X7620Y2540D02*
X13922D01*
X6096Y4064D02*
X7620Y2540D01*
X6096Y4064D02*
Y12573D01*
X18161Y18288D02*
X19177Y19304D01*
X13922Y18288D02*
X18161D01*
X6096Y17573D02*
X6811Y18288D01*
X3660Y15137D02*
X6096Y17573D01*
X3660Y6477D02*
Y15137D01*
X18161Y2540D02*
X19177Y3556D01*
X13922Y2540D02*
X18161D01*
X18155Y30226D02*
X19177Y29204D01*
X13922Y30226D02*
X18155D01*
X9167Y29210D02*
X10183Y30226D01*
X9167Y25644D02*
Y29210D01*
X6096Y22573D02*
X9167Y25644D01*
X6096Y22573D02*
X9177D01*
X22098Y16377D02*
Y19812D01*
X19177Y13456D02*
X22098Y16377D01*
X8763Y6477D02*
Y12319D01*
X10922Y14478D01*
X13922D01*
X1397Y26543D02*
X4064Y29210D01*
X1397Y5207D02*
Y26543D01*
Y5207D02*
X4064Y2540D01*
X7620D01*
X13922Y14478D02*
X14944Y13456D01*
X19177D01*
X9177Y22573D02*
X10414Y21336D01*
X20574D01*
X22098Y19812D01*
X6811Y18288D02*
X13922D01*
X10183Y30226D02*
X13922D01*
D12*
X55852Y24207D02*
X57875D01*
X76330D01*
X76708Y23829D01*
X55852Y8459D02*
X57875D01*
X53594Y8335D02*
X55852Y8459D01*
X68072Y14431D02*
X69303D01*
X70325Y13409D01*
X68072Y2493D02*
X69309D01*
X70325Y3509D01*
X53594Y24083D02*
X55852Y24207D01*
X68072Y30179D02*
X69303D01*
X70325Y29157D01*
X68072Y18241D02*
X69309D01*
X70325Y19257D01*
X67430Y8161D02*
X76708D01*
X57875Y8459D02*
X67132D01*
X73629Y13161D02*
X76708D01*
X73381Y13409D02*
X73629Y13161D01*
X70325Y13409D02*
X73381D01*
X73678Y3161D02*
X76708D01*
X70325Y3509D02*
X73330D01*
X73658Y28829D02*
X76708D01*
X70325Y29157D02*
X73330D01*
X73707Y18829D02*
X76708D01*
X73279Y19257D02*
X73707Y18829D01*
X70325Y19257D02*
X73279D01*
X29177Y19304D02*
X32131D01*
X32559Y18876D01*
X35560D01*
X29177Y29204D02*
X32182D01*
X32510Y28876D02*
X35560D01*
X29177Y3556D02*
X32182D01*
X32530Y3208D02*
X35560D01*
X29177Y13456D02*
X32233D01*
X32481Y13208D01*
X35560D01*
X16727Y8506D02*
X25984D01*
X26282Y8208D02*
X35560D01*
X28161Y18288D02*
X29177Y19304D01*
X26924Y18288D02*
X28161D01*
X28155Y30226D02*
X29177Y29204D01*
X26924Y30226D02*
X28155D01*
X12446Y24130D02*
X14704Y24254D01*
X28161Y2540D02*
X29177Y3556D01*
X26924Y2540D02*
X28161D01*
X28155Y14478D02*
X29177Y13456D01*
X26924Y14478D02*
X28155D01*
X12446Y8382D02*
X14704Y8506D01*
X16727D01*
X35182Y24254D02*
X35560Y23876D01*
X16727Y24254D02*
X35182D01*
X14704D02*
X16727D01*
D13*
X76708Y28829D02*
D03*
Y18829D02*
D03*
Y23829D02*
D03*
Y13161D02*
D03*
Y3161D02*
D03*
Y8161D02*
D03*
X47244Y12526D02*
D03*
Y22526D02*
D03*
Y17526D02*
D03*
X44808Y6430D02*
D03*
X45212Y29163D02*
D03*
X3660Y6477D02*
D03*
X6096Y12573D02*
D03*
Y22573D02*
D03*
Y17573D02*
D03*
X4064Y29210D02*
D03*
X35560Y28876D02*
D03*
Y18876D02*
D03*
Y23876D02*
D03*
Y13208D02*
D03*
Y3208D02*
D03*
Y8208D02*
D03*
D14*
X55070Y18241D02*
D03*
Y30179D02*
D03*
X68072D02*
D03*
X53594Y24083D02*
D03*
X68072Y18241D02*
D03*
X55070Y2493D02*
D03*
Y14431D02*
D03*
X68072D02*
D03*
X53594Y8335D02*
D03*
X68072Y2493D02*
D03*
X13922Y18288D02*
D03*
Y30226D02*
D03*
X26924D02*
D03*
X12446Y24130D02*
D03*
X26924Y18288D02*
D03*
X13922Y2540D02*
D03*
Y14478D02*
D03*
X26924D02*
D03*
X12446Y8382D02*
D03*
X26924Y2540D02*
D03*
D15*
X57875Y24207D02*
D03*
X70325Y19257D02*
D03*
Y29157D02*
D03*
X57875Y8459D02*
D03*
X70325Y3509D02*
D03*
Y13409D02*
D03*
X16727Y24254D02*
D03*
X29177Y19304D02*
D03*
Y29204D02*
D03*
X16727Y8506D02*
D03*
X29177Y3556D02*
D03*
Y13456D02*
D03*
D16*
X60325Y19257D02*
D03*
Y29157D02*
D03*
Y3509D02*
D03*
Y13409D02*
D03*
X19177Y19304D02*
D03*
Y29204D02*
D03*
Y3556D02*
D03*
Y13456D02*
D03*
D17*
X49911Y6430D02*
D03*
X50315Y29163D02*
D03*
X8763Y6477D02*
D03*
X9167Y29210D02*
D03*
M02*
