G04 Layer_Physical_Order=2*
G04 Layer_Color=16711680*
%FSLAX43Y43*%
%MOMM*%
G71*
G01*
G75*
%ADD10C,1.000*%
%ADD11C,2.500*%
%ADD12C,0.500*%
%ADD13O,1.800X2.300*%
%ADD14C,3.000*%
%ADD15R,2.000X2.000*%
%ADD16C,2.000*%
%ADD17P,3.299X8X112.5*%
%ADD18C,3.048*%
%ADD19C,2.300*%
%ADD20P,2.490X8X292.5*%
%ADD21R,1.397X1.397*%
%ADD22C,1.397*%
%ADD23O,2.500X1.524*%
D10*
X21463Y3302D02*
Y4699D01*
X20320Y2159D02*
X21463Y3302D01*
X15621Y2159D02*
X20320D01*
X14097D02*
X15621D01*
X12700Y3556D02*
X14097Y2159D01*
X12700Y3556D02*
Y5975D01*
X16002Y6553D02*
Y8128D01*
X15621Y6172D02*
X16002Y6553D01*
X15621Y4191D02*
Y6172D01*
D11*
X27732Y12239D02*
X45593D01*
X26285Y10792D02*
X27732Y12239D01*
X21463Y4699D02*
X27592D01*
X28735Y5842D01*
X40232Y17239D02*
X45593D01*
X38735Y15742D02*
X40232Y17239D01*
X34465Y16637D02*
X37840D01*
X38735Y15742D01*
X40132Y7239D02*
X45593D01*
X38735Y5842D02*
X40132Y7239D01*
X34465Y4699D02*
X37592D01*
X38735Y5842D01*
X7360Y13075D02*
X12700D01*
X5842Y11557D02*
X7360Y13075D01*
X16002Y16377D02*
Y18136D01*
X12700Y13075D02*
X16002Y16377D01*
X21463Y16637D02*
X27840D01*
X28735Y15742D01*
X17501Y16637D02*
X21463D01*
X16002Y18136D02*
X17501Y16637D01*
X9519Y5975D02*
X12700D01*
X9017Y6477D02*
X9519Y5975D01*
X5842Y6477D02*
X9017D01*
X23238Y10792D02*
X26285D01*
X19987Y10541D02*
X22987D01*
D12*
X23238Y10792D01*
D13*
X16002Y18136D02*
D03*
Y8128D02*
D03*
D14*
X42704Y2032D02*
D03*
X45593Y12239D02*
D03*
Y7239D02*
D03*
Y17239D02*
D03*
X7652Y17272D02*
D03*
D15*
X12700Y13075D02*
D03*
D16*
Y5975D02*
D03*
D17*
X5842Y6477D02*
D03*
D18*
Y11557D02*
D03*
D19*
X38735Y15742D02*
D03*
Y5842D02*
D03*
X26285Y10792D02*
D03*
D20*
X28735Y15742D02*
D03*
Y5842D02*
D03*
D21*
X15621Y4191D02*
D03*
D22*
Y2159D02*
D03*
D23*
X34465Y4699D02*
D03*
X19987Y10541D02*
D03*
X34465Y16637D02*
D03*
X21463D02*
D03*
Y4699D02*
D03*
M02*
