M48
;Layer_Color=9474304
;FILE_FORMAT=4:3
METRIC,LZ
;TYPE=PLATED
T1F00S00C0.762
T2F00S00C0.800
T3F00S00C1.000
T4F00S00C1.300
T5F00S00C3.000
%
T01
X0015621Y0002159
Y0004191
X0021463Y0004699
X0019987Y0010541
X0021463Y0016637
X0034465
Y0004699
T02
X0016002Y0008128
Y0018136
T03
X0045593Y0007239
Y0012239
Y0017239
X00127Y0013075
Y0005975
X0005842Y0006477
Y0011557
T04
X0028735Y0005842
X0026285Y0010792
X0028735Y0015742
X0038735
Y0005842
T05
X0042704Y0002032
X0007652Y0017272
M30
