M48
;Layer_Color=9474304
;FILE_FORMAT=4:3
METRIC,LZ
;TYPE=PLATED
T1F00S00C1.000
T2F00S00C1.200
T3F00S00C1.300
%
T01
X0067866Y0002159
X0075692Y0003048
Y0008048
Y0013048
X0075715Y0020447
Y0025447
X0067889Y0019558
X0067866Y0014097
X0054864
X0054887Y0019558
X0053411Y00254
X0046124Y0022225
X0046101Y0009906
Y0004826
X0053388Y0008001
X0054864Y0002159
X0035052Y0003001
Y0008001
Y0013001
X0035075Y00204
Y00254
X0027249Y0019511
X0027226Y001405
Y0002112
X0014224
X0012748Y0007954
X0014224Y001405
X0014247Y0019511
X0012771Y0025353
X0005484Y0022178
X0005461Y0009859
Y0004779
X0005484Y0027258
X0014247Y0031449
X0027249
X0035075Y00304
X0046124Y0027305
X0054887Y0031496
X0067889
X0075715Y0030447
T02
X0043919Y0014732
X0049022
X0008382Y0014685
X0003279
X0003302Y0032084
X0008405
X0043942Y0032131
X0049045
T03
X0069723Y0003181
Y0013081
X0069746Y002058
X0059746
X0057296Y002553
X0059723Y0013081
X0057273Y0008131
X0059723Y0003181
X0029083Y0003134
Y0013034
X0029106Y0020533
X0019106
X0016656Y0025483
X0019083Y0013034
X0016633Y0008084
X0019083Y0003134
X0019106Y0030433
X0029106
X0059746Y003048
X0069746
M30
