G04 Layer_Physical_Order=2*
G04 Layer_Color=16711680*
%FSLAX43Y43*%
%MOMM*%
G71*
G01*
G75*
%ADD10C,0.254*%
%ADD11C,0.500*%
%ADD12C,3.000*%
%ADD13C,1.000*%
%ADD14C,2.500*%
%ADD15C,3.000*%
%ADD16C,2.300*%
%ADD17P,2.490X8X292.5*%
%ADD18C,2.000*%
%ADD19P,3.247X8X112.5*%
%ADD20R,2.000X2.000*%
D10*
X40513Y16637D02*
X81153D01*
X0D02*
X40513D01*
X0Y0D02*
Y34036D01*
X81153D01*
Y0D02*
Y34036D01*
X40513Y0D02*
Y34036D01*
X0Y0D02*
X81153D01*
D11*
X28067Y14050D02*
X29083Y13034D01*
X28248Y3134D02*
X29083D01*
X25781Y8084D02*
X25864Y8001D01*
X14605Y7954D02*
X14735Y8084D01*
X31979Y3134D02*
X32112Y3001D01*
X10973Y14685D02*
X11608Y14050D01*
X10996Y32084D02*
X11631Y31449D01*
X32002Y20533D02*
X32135Y20400D01*
X14628Y25353D02*
X14758Y25483D01*
X25804D02*
X25887Y25400D01*
X28271Y20533D02*
X29106D01*
X28090Y31449D02*
X29106Y30433D01*
X68730Y31496D02*
X69746Y30480D01*
X68911Y20580D02*
X69746D01*
X66444Y25530D02*
X66527Y25447D01*
X55268Y25400D02*
X55398Y25530D01*
X72642Y20580D02*
X72775Y20447D01*
X51636Y32131D02*
X52271Y31496D01*
X51613Y14732D02*
X52248Y14097D01*
X72619Y3181D02*
X72752Y3048D01*
X55245Y8001D02*
X55375Y8131D01*
X66421D02*
X66504Y8048D01*
X68888Y3181D02*
X69723D01*
X68707Y14097D02*
X69723Y13081D01*
D12*
X27226Y14050D02*
X28067D01*
X29116Y13001D02*
X35052D01*
X27226Y2112D02*
X28248Y3134D01*
X8382Y12780D02*
Y14685D01*
X5461Y9859D02*
X8382Y12780D01*
X15240Y13034D02*
X19083D01*
X14224Y14050D02*
X15240Y13034D01*
X25864Y8001D02*
X35052D01*
X16633Y8084D02*
X25781D01*
X14735D02*
X16633D01*
X12748Y7954D02*
X14605D01*
X32112Y3001D02*
X35052D01*
X29083Y3134D02*
X31979D01*
X11608Y14050D02*
X14224D01*
X8382Y14685D02*
X10973D01*
X14224Y2112D02*
X15246Y3134D01*
X19083D01*
X2032Y13438D02*
X3279Y14685D01*
X5461Y4779D02*
X8128Y2112D01*
X14224D01*
X2032Y8208D02*
X5461Y4779D01*
X8151Y19511D02*
X14247D01*
X5484Y22178D02*
X8151Y19511D01*
X15269Y20533D02*
X19106D01*
X14247Y19511D02*
X15269Y20533D01*
X8405Y32084D02*
X10996D01*
X11631Y31449D02*
X14247D01*
X29106Y20533D02*
X32002D01*
X32135Y20400D02*
X35075D01*
X12771Y25353D02*
X14628D01*
X14758Y25483D02*
X16656D01*
X25804D01*
X25887Y25400D02*
X35075D01*
X14247Y31449D02*
X15263Y30433D01*
X19106D01*
X5484Y27258D02*
X8405Y30179D01*
Y32084D01*
X27249Y19511D02*
X28271Y20533D01*
X29139Y30400D02*
X35075D01*
X27249Y31449D02*
X28090D01*
X2286Y25376D02*
X5484Y22178D01*
X2286Y31068D02*
X3302Y32084D01*
X42926Y31115D02*
X43942Y32131D01*
X42926Y25423D02*
X46124Y22225D01*
X67889Y31496D02*
X68730D01*
X69779Y30447D02*
X75715D01*
X67889Y19558D02*
X68911Y20580D01*
X49045Y30226D02*
Y32131D01*
X46124Y27305D02*
X49045Y30226D01*
X55903Y30480D02*
X59746D01*
X54887Y31496D02*
X55903Y30480D01*
X66527Y25447D02*
X75715D01*
X57296Y25530D02*
X66444D01*
X55398D02*
X57296D01*
X53411Y25400D02*
X55268D01*
X72775Y20447D02*
X75715D01*
X69746Y20580D02*
X72642D01*
X52271Y31496D02*
X54887D01*
X49045Y32131D02*
X51636D01*
X54887Y19558D02*
X55909Y20580D01*
X59746D01*
X46124Y22225D02*
X48791Y19558D01*
X54887D01*
X42672Y8255D02*
X46101Y4826D01*
X48768Y2159D02*
X54864D01*
X46101Y4826D02*
X48768Y2159D01*
X42672Y13485D02*
X43919Y14732D01*
X55886Y3181D02*
X59723D01*
X54864Y2159D02*
X55886Y3181D01*
X49022Y14732D02*
X51613D01*
X52248Y14097D02*
X54864D01*
X69723Y3181D02*
X72619D01*
X72752Y3048D02*
X75692D01*
X53388Y8001D02*
X55245D01*
X55375Y8131D02*
X57273D01*
X66421D01*
X66504Y8048D02*
X75692D01*
X54864Y14097D02*
X55880Y13081D01*
X59723D01*
X46101Y9906D02*
X49022Y12827D01*
Y14732D01*
X67866Y2159D02*
X68888Y3181D01*
X69756Y13048D02*
X75692D01*
X67866Y14097D02*
X68707D01*
D13*
X29083Y13034D02*
X29116Y13001D01*
X29106Y30433D02*
X29139Y30400D01*
X69746Y30480D02*
X69779Y30447D01*
X69723Y13081D02*
X69756Y13048D01*
D14*
X2032Y8208D02*
Y13438D01*
X2286Y25376D02*
Y31068D01*
X42926Y25423D02*
Y31115D01*
X42672Y8255D02*
Y13485D01*
D15*
X35052Y8001D02*
D03*
Y3001D02*
D03*
Y13001D02*
D03*
X5461Y9859D02*
D03*
X5484Y27258D02*
D03*
X35075Y25400D02*
D03*
Y20400D02*
D03*
Y30400D02*
D03*
X75715Y25447D02*
D03*
Y20447D02*
D03*
Y30447D02*
D03*
X46124Y27305D02*
D03*
X46101Y9906D02*
D03*
X75692Y8048D02*
D03*
Y3048D02*
D03*
Y13048D02*
D03*
D16*
X29083Y13034D02*
D03*
Y3134D02*
D03*
X16633Y8084D02*
D03*
X29106Y30433D02*
D03*
Y20533D02*
D03*
X16656Y25483D02*
D03*
X69746Y30480D02*
D03*
Y20580D02*
D03*
X57296Y25530D02*
D03*
X69723Y13081D02*
D03*
Y3181D02*
D03*
X57273Y8131D02*
D03*
D17*
X19083Y13034D02*
D03*
Y3134D02*
D03*
X19106Y30433D02*
D03*
Y20533D02*
D03*
X59746Y30480D02*
D03*
Y20580D02*
D03*
X59723Y13081D02*
D03*
Y3181D02*
D03*
D18*
X27226Y2112D02*
D03*
X12748Y7954D02*
D03*
X27226Y14050D02*
D03*
X14224D02*
D03*
Y2112D02*
D03*
X3279Y14685D02*
D03*
X3302Y32084D02*
D03*
X27249Y19511D02*
D03*
X12771Y25353D02*
D03*
X27249Y31449D02*
D03*
X14247D02*
D03*
Y19511D02*
D03*
X67889Y19558D02*
D03*
X53411Y25400D02*
D03*
X67889Y31496D02*
D03*
X54887D02*
D03*
Y19558D02*
D03*
X43942Y32131D02*
D03*
X43919Y14732D02*
D03*
X67866Y2159D02*
D03*
X53388Y8001D02*
D03*
X67866Y14097D02*
D03*
X54864D02*
D03*
Y2159D02*
D03*
D19*
X5461Y4779D02*
D03*
X5484Y22178D02*
D03*
X46124Y22225D02*
D03*
X46101Y4826D02*
D03*
D20*
X8382Y14685D02*
D03*
X8405Y32084D02*
D03*
X49045Y32131D02*
D03*
X49022Y14732D02*
D03*
M02*
