M48
;Layer_Color=9474304
;FILE_FORMAT=4:3
METRIC,LZ
;TYPE=PLATED
T1F00S00C1.000
T2F00S00C1.200
T3F00S00C1.300
%
T01
X0075819Y0003222
Y0008222
Y0013222
X0075842Y0020621
Y0025621
Y0030621
X0075819Y0037258
X0067993Y0036369
X0068016Y003167
Y0019732
X0067993Y0014271
Y0002333
X0054991
X0053515Y0008175
X0054991Y0014271
X0055014Y0019732
X0053538Y0025574
X0055014Y003167
X0054991Y0036369
X0046251Y0027479
Y0022399
X0046228Y001008
Y0005
X0035179Y0003175
Y0008175
Y0013175
X0035202Y0020574
Y0025574
Y0030574
X0035179Y0037211
X0027353Y0036322
X0027376Y0031623
Y0019685
X0027353Y0014224
Y0002286
X0014351
X0012875Y0008128
X0014351Y0014224
X0014374Y0019685
X0012898Y0025527
X0014374Y0031623
X0014351Y0036322
X0005611Y0027432
Y0022352
X0005588Y0010033
Y0004953
X0Y0
X0005588Y0038989
Y0044069
X0012875Y0042164
X0014351Y004826
X0014374Y0053721
X0012898Y0059563
X0014374Y0065659
X0014351Y0070358
X0012875Y00762
X0005588Y0078105
Y0073025
X0005611Y0061468
Y0056388
X0027376Y0053721
X0027353Y004826
X0027376Y0065659
X0027353Y0070358
X0035179Y0071247
Y0076247
X0035202Y006461
Y005961
Y005461
X0035179Y0047211
Y0042211
X0046228Y0044116
Y0039036
X0053515Y0042211
X0054991Y0048307
X0055014Y0053768
X0053538Y005961
X0055014Y0065706
X0054991Y0070405
X0053515Y0076247
X0046228Y0078152
Y0073072
X0046251Y0061515
Y0056435
X0068016Y0053768
X0067993Y0048307
X0068016Y0065706
X0067993Y0070405
X0075819Y0071294
Y0076294
X0075842Y0064657
Y0059657
Y0054657
X0075819Y0047258
Y0042258
Y0081294
X0067993Y0082343
X0054991
X0035179Y0081247
X0027353Y0082296
X0014351
T02
X0044046Y0014906
X0049149
X0049172Y0032305
X0044069
X0008532Y0032258
X0003429
X0003406Y0014859
X0008509
Y0048895
X0003406
X0003429Y0066294
X0008532
X0044069Y0066341
X0049172
X0049149Y0048942
X0044046
Y0082978
X0049149
X0008509Y0082931
X0003406
T03
X005985Y0003355
X00574Y0008305
X005985Y0013255
X0059873Y0020754
X0057423Y0025704
X0059873Y0030654
X005985Y0037391
X006985
X0069873Y0030654
Y0020754
X006985Y0013255
Y0003355
X002921Y0003308
Y0013208
X0029233Y0020707
Y0030607
X002921Y0037344
X001921
X0019233Y0030607
X0016783Y0025657
X0019233Y0020707
X001921Y0013208
X001676Y0008258
X001921Y0003308
X001676Y0042294
X001921Y0047244
X0019233Y0054743
X0016783Y0059693
X0019233Y0064643
X001921Y007138
X001676Y007633
X002921Y007138
X0029233Y0064643
Y0054743
X002921Y0047244
X005985Y0047291
X00574Y0042341
X0059873Y005479
X0057423Y005974
X0059873Y006469
X005985Y0071427
X00574Y0076377
X006985Y0071427
X0069873Y006469
Y005479
X006985Y0047291
Y0081327
X005985
X002921Y008128
X001921
M30
