M48
;Layer_Color=9474304
;FILE_FORMAT=4:3
METRIC,LZ
;TYPE=PLATED
T1F00S00C1.000
T2F00S00C1.200
T3F00S00C1.300
%
T01
X0005207Y0004826
Y0009906
X0012494Y0008001
X001397Y0002159
Y0014097
X0026972
X0034798Y0013048
Y0008048
Y0003048
X0026972Y0002159
X0026995Y0019558
X0034821Y0020447
Y0025447
Y0030447
X0026995Y0031496
X0013993
X0012517Y00254
X0013993Y0019558
X000523Y0022225
Y0027305
T02
X0003025Y0014732
X0008128
X0008151Y0032131
X0003048
T03
X0018829Y0003181
X0016379Y0008131
X0018829Y0013081
X0028829
Y0003181
X0028852Y002058
Y003048
X0018852
X0016402Y002553
X0018852Y002058
M30
