G04 Layer_Physical_Order=2*
G04 Layer_Color=16711680*
%FSLAX43Y43*%
%MOMM*%
G71*
G01*
G75*
%ADD10C,0.254*%
%ADD11C,0.500*%
%ADD12C,3.000*%
%ADD13C,1.000*%
%ADD14C,2.500*%
%ADD15C,3.000*%
%ADD16C,2.300*%
%ADD17P,2.490X8X292.5*%
%ADD18C,2.000*%
%ADD19P,3.247X8X112.5*%
%ADD20R,2.000X2.000*%
D10*
X40640Y68246D02*
Y84883D01*
X81280Y68246D02*
Y84883D01*
X127D02*
X40640D01*
X127Y68199D02*
Y84883D01*
X40640D02*
X81280D01*
X40640Y34210D02*
Y68246D01*
X81280Y34210D02*
Y68246D01*
X127D02*
X81280D01*
X127Y34210D02*
Y68246D01*
Y50847D02*
X40640D01*
X81280D01*
X127Y174D02*
X81280D01*
X40640D02*
Y34210D01*
X81280Y174D02*
Y34210D01*
X127D02*
X81280D01*
X127Y174D02*
Y34210D01*
Y16811D02*
X40640D01*
X81280D01*
D11*
X68834Y82343D02*
X69850Y81327D01*
X69015Y71427D02*
X69850D01*
X66548Y76377D02*
X66631Y76294D01*
X55372Y76247D02*
X55502Y76377D01*
X72746Y71427D02*
X72879Y71294D01*
X51740Y82978D02*
X52375Y82343D01*
X11100Y82931D02*
X11735Y82296D01*
X32106Y71380D02*
X32239Y71247D01*
X14732Y76200D02*
X14862Y76330D01*
X25908D02*
X25991Y76247D01*
X28375Y71380D02*
X29210D01*
X28194Y82296D02*
X29210Y81280D01*
X68834Y48307D02*
X69850Y47291D01*
X69015Y37391D02*
X69850D01*
X66548Y42341D02*
X66631Y42258D01*
X55372Y42211D02*
X55502Y42341D01*
X72746Y37391D02*
X72879Y37258D01*
X51740Y48942D02*
X52375Y48307D01*
X51763Y66341D02*
X52398Y65706D01*
X72769Y54790D02*
X72902Y54657D01*
X55395Y59610D02*
X55525Y59740D01*
X66571D02*
X66654Y59657D01*
X69038Y54790D02*
X69873D01*
X68857Y65706D02*
X69873Y64690D01*
X28217Y65659D02*
X29233Y64643D01*
X28398Y54743D02*
X29233D01*
X25931Y59693D02*
X26014Y59610D01*
X14755Y59563D02*
X14885Y59693D01*
X32129Y54743D02*
X32262Y54610D01*
X11123Y66294D02*
X11758Y65659D01*
X11100Y48895D02*
X11735Y48260D01*
X32106Y37344D02*
X32239Y37211D01*
X14732Y42164D02*
X14862Y42294D01*
X25908D02*
X25991Y42211D01*
X28375Y37344D02*
X29210D01*
X28194Y48260D02*
X29210Y47244D01*
X68834Y14271D02*
X69850Y13255D01*
X69015Y3355D02*
X69850D01*
X66548Y8305D02*
X66631Y8222D01*
X55372Y8175D02*
X55502Y8305D01*
X72746Y3355D02*
X72879Y3222D01*
X51740Y14906D02*
X52375Y14271D01*
X51763Y32305D02*
X52398Y31670D01*
X72769Y20754D02*
X72902Y20621D01*
X55395Y25574D02*
X55525Y25704D01*
X66571D02*
X66654Y25621D01*
X69038Y20754D02*
X69873D01*
X68857Y31670D02*
X69873Y30654D01*
X28217Y31623D02*
X29233Y30607D01*
X28398Y20707D02*
X29233D01*
X25931Y25657D02*
X26014Y25574D01*
X14755Y25527D02*
X14885Y25657D01*
X32129Y20707D02*
X32262Y20574D01*
X11123Y32258D02*
X11758Y31623D01*
X11100Y14859D02*
X11735Y14224D01*
X32106Y3308D02*
X32239Y3175D01*
X14732Y8128D02*
X14862Y8258D01*
X25908D02*
X25991Y8175D01*
X28375Y3308D02*
X29210D01*
X28194Y14224D02*
X29210Y13208D01*
D12*
X67993Y82343D02*
X68834D01*
X69883Y81294D02*
X75819D01*
X67993Y70405D02*
X69015Y71427D01*
X49149Y81073D02*
Y82978D01*
X46228Y78152D02*
X49149Y81073D01*
X56007Y81327D02*
X59850D01*
X54991Y82343D02*
X56007Y81327D01*
X66631Y76294D02*
X75819D01*
X57400Y76377D02*
X66548D01*
X55502D02*
X57400D01*
X53515Y76247D02*
X55372D01*
X72879Y71294D02*
X75819D01*
X69850Y71427D02*
X72746D01*
X52375Y82343D02*
X54991D01*
X49149Y82978D02*
X51740D01*
X54991Y70405D02*
X56013Y71427D01*
X59850D01*
X42799Y81731D02*
X44046Y82978D01*
X46228Y73072D02*
X48895Y70405D01*
X54991D01*
X42799Y76501D02*
X46228Y73072D01*
X2159Y76454D02*
X5588Y73025D01*
X8255Y70358D02*
X14351D01*
X5588Y73025D02*
X8255Y70358D01*
X2159Y81684D02*
X3406Y82931D01*
X15373Y71380D02*
X19210D01*
X14351Y70358D02*
X15373Y71380D01*
X8509Y82931D02*
X11100D01*
X11735Y82296D02*
X14351D01*
X29210Y71380D02*
X32106D01*
X32239Y71247D02*
X35179D01*
X12875Y76200D02*
X14732D01*
X14862Y76330D02*
X16760D01*
X25908D01*
X25991Y76247D02*
X35179D01*
X14351Y82296D02*
X15367Y81280D01*
X19210D01*
X5588Y78105D02*
X8509Y81026D01*
Y82931D01*
X27353Y70358D02*
X28375Y71380D01*
X29243Y81247D02*
X35179D01*
X27353Y82296D02*
X28194D01*
X67993Y48307D02*
X68834D01*
X69883Y47258D02*
X75819D01*
X67993Y36369D02*
X69015Y37391D01*
X49149Y47037D02*
Y48942D01*
X46228Y44116D02*
X49149Y47037D01*
X56007Y47291D02*
X59850D01*
X54991Y48307D02*
X56007Y47291D01*
X66631Y42258D02*
X75819D01*
X57400Y42341D02*
X66548D01*
X55502D02*
X57400D01*
X53515Y42211D02*
X55372D01*
X72879Y37258D02*
X75819D01*
X69850Y37391D02*
X72746D01*
X52375Y48307D02*
X54991D01*
X49149Y48942D02*
X51740D01*
X54991Y36369D02*
X56013Y37391D01*
X59850D01*
X42799Y47695D02*
X44046Y48942D01*
X46228Y39036D02*
X48895Y36369D01*
X54991D01*
X42799Y42465D02*
X46228Y39036D01*
X48918Y53768D02*
X55014D01*
X46251Y56435D02*
X48918Y53768D01*
X56036Y54790D02*
X59873D01*
X55014Y53768D02*
X56036Y54790D01*
X49172Y66341D02*
X51763D01*
X52398Y65706D02*
X55014D01*
X69873Y54790D02*
X72769D01*
X72902Y54657D02*
X75842D01*
X53538Y59610D02*
X55395D01*
X55525Y59740D02*
X57423D01*
X66571D01*
X66654Y59657D02*
X75842D01*
X55014Y65706D02*
X56030Y64690D01*
X59873D01*
X46251Y61515D02*
X49172Y64436D01*
Y66341D01*
X68016Y53768D02*
X69038Y54790D01*
X69906Y64657D02*
X75842D01*
X68016Y65706D02*
X68857D01*
X43053Y59633D02*
X46251Y56435D01*
X43053Y65325D02*
X44069Y66341D01*
X2413Y65278D02*
X3429Y66294D01*
X2413Y59586D02*
X5611Y56388D01*
X27376Y65659D02*
X28217D01*
X29266Y64610D02*
X35202D01*
X27376Y53721D02*
X28398Y54743D01*
X8532Y64389D02*
Y66294D01*
X5611Y61468D02*
X8532Y64389D01*
X15390Y64643D02*
X19233D01*
X14374Y65659D02*
X15390Y64643D01*
X26014Y59610D02*
X35202D01*
X16783Y59693D02*
X25931D01*
X14885D02*
X16783D01*
X12898Y59563D02*
X14755D01*
X32262Y54610D02*
X35202D01*
X29233Y54743D02*
X32129D01*
X11758Y65659D02*
X14374D01*
X8532Y66294D02*
X11123D01*
X14374Y53721D02*
X15396Y54743D01*
X19233D01*
X5611Y56388D02*
X8278Y53721D01*
X14374D01*
X2159Y42418D02*
X5588Y38989D01*
X8255Y36322D02*
X14351D01*
X5588Y38989D02*
X8255Y36322D01*
X2159Y47648D02*
X3406Y48895D01*
X15373Y37344D02*
X19210D01*
X14351Y36322D02*
X15373Y37344D01*
X8509Y48895D02*
X11100D01*
X11735Y48260D02*
X14351D01*
X29210Y37344D02*
X32106D01*
X32239Y37211D02*
X35179D01*
X12875Y42164D02*
X14732D01*
X14862Y42294D02*
X16760D01*
X25908D01*
X25991Y42211D02*
X35179D01*
X14351Y48260D02*
X15367Y47244D01*
X19210D01*
X5588Y44069D02*
X8509Y46990D01*
Y48895D01*
X27353Y36322D02*
X28375Y37344D01*
X29243Y47211D02*
X35179D01*
X27353Y48260D02*
X28194D01*
X67993Y14271D02*
X68834D01*
X69883Y13222D02*
X75819D01*
X67993Y2333D02*
X69015Y3355D01*
X49149Y13001D02*
Y14906D01*
X46228Y10080D02*
X49149Y13001D01*
X56007Y13255D02*
X59850D01*
X54991Y14271D02*
X56007Y13255D01*
X66631Y8222D02*
X75819D01*
X57400Y8305D02*
X66548D01*
X55502D02*
X57400D01*
X53515Y8175D02*
X55372D01*
X72879Y3222D02*
X75819D01*
X69850Y3355D02*
X72746D01*
X52375Y14271D02*
X54991D01*
X49149Y14906D02*
X51740D01*
X54991Y2333D02*
X56013Y3355D01*
X59850D01*
X42799Y13659D02*
X44046Y14906D01*
X46228Y5000D02*
X48895Y2333D01*
X54991D01*
X42799Y8429D02*
X46228Y5000D01*
X48918Y19732D02*
X55014D01*
X46251Y22399D02*
X48918Y19732D01*
X56036Y20754D02*
X59873D01*
X55014Y19732D02*
X56036Y20754D01*
X49172Y32305D02*
X51763D01*
X52398Y31670D02*
X55014D01*
X69873Y20754D02*
X72769D01*
X72902Y20621D02*
X75842D01*
X53538Y25574D02*
X55395D01*
X55525Y25704D02*
X57423D01*
X66571D01*
X66654Y25621D02*
X75842D01*
X55014Y31670D02*
X56030Y30654D01*
X59873D01*
X46251Y27479D02*
X49172Y30400D01*
Y32305D01*
X68016Y19732D02*
X69038Y20754D01*
X69906Y30621D02*
X75842D01*
X68016Y31670D02*
X68857D01*
X43053Y25597D02*
X46251Y22399D01*
X43053Y31289D02*
X44069Y32305D01*
X2413Y31242D02*
X3429Y32258D01*
X2413Y25550D02*
X5611Y22352D01*
X27376Y31623D02*
X28217D01*
X29266Y30574D02*
X35202D01*
X27376Y19685D02*
X28398Y20707D01*
X8532Y30353D02*
Y32258D01*
X5611Y27432D02*
X8532Y30353D01*
X15390Y30607D02*
X19233D01*
X14374Y31623D02*
X15390Y30607D01*
X26014Y25574D02*
X35202D01*
X16783Y25657D02*
X25931D01*
X14885D02*
X16783D01*
X12898Y25527D02*
X14755D01*
X32262Y20574D02*
X35202D01*
X29233Y20707D02*
X32129D01*
X11758Y31623D02*
X14374D01*
X8532Y32258D02*
X11123D01*
X14374Y19685D02*
X15396Y20707D01*
X19233D01*
X5611Y22352D02*
X8278Y19685D01*
X14374D01*
X2159Y8382D02*
X5588Y4953D01*
X8255Y2286D02*
X14351D01*
X5588Y4953D02*
X8255Y2286D01*
X2159Y13612D02*
X3406Y14859D01*
X15373Y3308D02*
X19210D01*
X14351Y2286D02*
X15373Y3308D01*
X8509Y14859D02*
X11100D01*
X11735Y14224D02*
X14351D01*
X29210Y3308D02*
X32106D01*
X32239Y3175D02*
X35179D01*
X12875Y8128D02*
X14732D01*
X14862Y8258D02*
X16760D01*
X25908D01*
X25991Y8175D02*
X35179D01*
X14351Y14224D02*
X15367Y13208D01*
X19210D01*
X5588Y10033D02*
X8509Y12954D01*
Y14859D01*
X27353Y2286D02*
X28375Y3308D01*
X29243Y13175D02*
X35179D01*
X27353Y14224D02*
X28194D01*
D13*
X69850Y81327D02*
X69883Y81294D01*
X29210Y81280D02*
X29243Y81247D01*
X69850Y47291D02*
X69883Y47258D01*
X69873Y64690D02*
X69906Y64657D01*
X29233Y64643D02*
X29266Y64610D01*
X29210Y47244D02*
X29243Y47211D01*
X69850Y13255D02*
X69883Y13222D01*
X69873Y30654D02*
X69906Y30621D01*
X29233Y30607D02*
X29266Y30574D01*
X29210Y13208D02*
X29243Y13175D01*
D14*
X42799Y76501D02*
Y81731D01*
X2159Y76454D02*
Y81684D01*
X42799Y42465D02*
Y47695D01*
X43053Y59633D02*
Y65325D01*
X2413Y59586D02*
Y65278D01*
X2159Y42418D02*
Y47648D01*
X42799Y8429D02*
Y13659D01*
X43053Y25597D02*
Y31289D01*
X2413Y25550D02*
Y31242D01*
X2159Y8382D02*
Y13612D01*
D15*
X75819Y76294D02*
D03*
Y71294D02*
D03*
Y81294D02*
D03*
X46228Y78152D02*
D03*
X5588Y78105D02*
D03*
X35179Y76247D02*
D03*
Y71247D02*
D03*
Y81247D02*
D03*
X75819Y42258D02*
D03*
Y37258D02*
D03*
Y47258D02*
D03*
X46228Y44116D02*
D03*
X46251Y61515D02*
D03*
X75842Y59657D02*
D03*
Y54657D02*
D03*
Y64657D02*
D03*
X35202Y59610D02*
D03*
Y54610D02*
D03*
Y64610D02*
D03*
X5611Y61468D02*
D03*
X5588Y44069D02*
D03*
X35179Y42211D02*
D03*
Y37211D02*
D03*
Y47211D02*
D03*
X75819Y8222D02*
D03*
Y3222D02*
D03*
Y13222D02*
D03*
X46228Y10080D02*
D03*
X46251Y27479D02*
D03*
X75842Y25621D02*
D03*
Y20621D02*
D03*
Y30621D02*
D03*
X35202Y25574D02*
D03*
Y20574D02*
D03*
Y30574D02*
D03*
X5611Y27432D02*
D03*
X5588Y10033D02*
D03*
X35179Y8175D02*
D03*
Y3175D02*
D03*
Y13175D02*
D03*
D16*
X69850Y81327D02*
D03*
Y71427D02*
D03*
X57400Y76377D02*
D03*
X29210Y81280D02*
D03*
Y71380D02*
D03*
X16760Y76330D02*
D03*
X69850Y47291D02*
D03*
Y37391D02*
D03*
X57400Y42341D02*
D03*
X69873Y64690D02*
D03*
Y54790D02*
D03*
X57423Y59740D02*
D03*
X29233Y64643D02*
D03*
Y54743D02*
D03*
X16783Y59693D02*
D03*
X29210Y47244D02*
D03*
Y37344D02*
D03*
X16760Y42294D02*
D03*
X69850Y13255D02*
D03*
Y3355D02*
D03*
X57400Y8305D02*
D03*
X69873Y30654D02*
D03*
Y20754D02*
D03*
X57423Y25704D02*
D03*
X29233Y30607D02*
D03*
Y20707D02*
D03*
X16783Y25657D02*
D03*
X29210Y13208D02*
D03*
Y3308D02*
D03*
X16760Y8258D02*
D03*
D17*
X59850Y81327D02*
D03*
Y71427D02*
D03*
X19210Y81280D02*
D03*
Y71380D02*
D03*
X59850Y47291D02*
D03*
Y37391D02*
D03*
X59873Y64690D02*
D03*
Y54790D02*
D03*
X19233Y64643D02*
D03*
Y54743D02*
D03*
X19210Y47244D02*
D03*
Y37344D02*
D03*
X59850Y13255D02*
D03*
Y3355D02*
D03*
X59873Y30654D02*
D03*
Y20754D02*
D03*
X19233Y30607D02*
D03*
Y20707D02*
D03*
X19210Y13208D02*
D03*
Y3308D02*
D03*
D18*
X67993Y70405D02*
D03*
X53515Y76247D02*
D03*
X67993Y82343D02*
D03*
X54991D02*
D03*
Y70405D02*
D03*
X44046Y82978D02*
D03*
X3406Y82931D02*
D03*
X27353Y70358D02*
D03*
X12875Y76200D02*
D03*
X27353Y82296D02*
D03*
X14351D02*
D03*
Y70358D02*
D03*
X67993Y36369D02*
D03*
X53515Y42211D02*
D03*
X67993Y48307D02*
D03*
X54991D02*
D03*
Y36369D02*
D03*
X44046Y48942D02*
D03*
X44069Y66341D02*
D03*
X68016Y53768D02*
D03*
X53538Y59610D02*
D03*
X68016Y65706D02*
D03*
X55014D02*
D03*
Y53768D02*
D03*
X27376Y53721D02*
D03*
X12898Y59563D02*
D03*
X27376Y65659D02*
D03*
X14374D02*
D03*
Y53721D02*
D03*
X3429Y66294D02*
D03*
X3406Y48895D02*
D03*
X27353Y36322D02*
D03*
X12875Y42164D02*
D03*
X27353Y48260D02*
D03*
X14351D02*
D03*
Y36322D02*
D03*
X67993Y2333D02*
D03*
X53515Y8175D02*
D03*
X67993Y14271D02*
D03*
X54991D02*
D03*
Y2333D02*
D03*
X44046Y14906D02*
D03*
X44069Y32305D02*
D03*
X68016Y19732D02*
D03*
X53538Y25574D02*
D03*
X68016Y31670D02*
D03*
X55014D02*
D03*
Y19732D02*
D03*
X27376Y19685D02*
D03*
X12898Y25527D02*
D03*
X27376Y31623D02*
D03*
X14374D02*
D03*
Y19685D02*
D03*
X3429Y32258D02*
D03*
X3406Y14859D02*
D03*
X27353Y2286D02*
D03*
X12875Y8128D02*
D03*
X27353Y14224D02*
D03*
X14351D02*
D03*
Y2286D02*
D03*
D19*
X46228Y73072D02*
D03*
X5588Y73025D02*
D03*
X46228Y39036D02*
D03*
X46251Y56435D02*
D03*
X5611Y56388D02*
D03*
X5588Y38989D02*
D03*
X46228Y5000D02*
D03*
X46251Y22399D02*
D03*
X5611Y22352D02*
D03*
X5588Y4953D02*
D03*
D20*
X49149Y82978D02*
D03*
X8509Y82931D02*
D03*
X49149Y48942D02*
D03*
X49172Y66341D02*
D03*
X8532Y66294D02*
D03*
X8509Y48895D02*
D03*
X49149Y14906D02*
D03*
X49172Y32305D02*
D03*
X8532Y32258D02*
D03*
X8509Y14859D02*
D03*
M02*
