%FSTAX23Y23*%
%MOIN*%
%SFA1B1*%

%IPPOS*%
%AMD17*
4,1,8,-0.060000,-0.024800,-0.024800,-0.060000,0.024800,-0.060000,0.060000,-0.024800,0.060000,0.024800,0.024800,0.060000,-0.024800,0.060000,-0.060000,0.024800,-0.060000,-0.024800,0.0*
%
%AMD20*
4,1,8,0.045300,0.018700,0.018700,0.045300,-0.018700,0.045300,-0.045300,0.018700,-0.045300,-0.018700,-0.018700,-0.045300,0.018700,-0.045300,0.045300,-0.018700,0.045300,0.018700,0.0*
%
%ADD10C,0.039370*%
%ADD11C,0.098425*%
%ADD12C,0.019685*%
%ADD13O,0.070866X0.090551*%
%ADD14C,0.118110*%
%ADD15R,0.078740X0.078740*%
%ADD16C,0.078740*%
G04~CAMADD=17~4~0.0~0.0~1199.9~1199.9~0.0~351.5~0~0.0~0.0~0.0~0.0~0~0.0~0.0~0.0~0.0~0~0.0~0.0~0.0~135.0~1199.9~1199.9*
%ADD17D17*%
%ADD18C,0.120000*%
%ADD19C,0.090551*%
G04~CAMADD=20~4~0.0~0.0~905.7~905.7~0.0~265.3~0~0.0~0.0~0.0~0.0~0~0.0~0.0~0.0~0.0~0~0.0~0.0~0.0~315.0~905.7~905.7*
%ADD20D20*%
%ADD21R,0.055000X0.055000*%
%ADD22C,0.055000*%
%ADD23O,0.098425X0.060000*%
%LNpcb1-1*%
%LPD*%
G54D10*
X00845Y0013D02*
Y00185D01*
X008Y00085D02*
X00845Y0013D01*
X00615Y00085D02*
X008D01*
X00555D02*
X00615D01*
X005Y0014D02*
X00555Y00085D01*
X005Y0014D02*
Y00236D01*
X0063Y00258D02*
Y0032D01*
X00615Y00243D02*
X0063Y00258D01*
X00615Y00165D02*
Y00243D01*
G54D11*
X01092Y00482D02*
X01795D01*
X01035Y00425D02*
X01092Y00482D01*
X00845Y00185D02*
X01087D01*
X01132Y0023*
X01584Y00679D02*
X01795D01*
X01525Y0062D02*
X01584Y00679D01*
X01357Y00655D02*
X0149D01*
X01525Y0062*
X0158Y00285D02*
X01795D01*
X01525Y0023D02*
X0158Y00285D01*
X01357Y00185D02*
X0148D01*
X01525Y0023*
X0029Y00515D02*
X005D01*
X0023Y00455D02*
X0029Y00515D01*
X0063Y00645D02*
Y00715D01*
X005Y00515D02*
X0063Y00645D01*
X00845Y00655D02*
X01097D01*
X01132Y0062*
X0069Y00655D02*
X00845D01*
X0063Y00715D02*
X0069Y00655D01*
X00375Y00236D02*
X005D01*
X00355Y00255D02*
X00375Y00236D01*
X0023Y00255D02*
X00355D01*
X00915Y00425D02*
X01035D01*
X00787Y00415D02*
X00905D01*
G54D12*
X00905Y00415D02*
X00915Y00425D01*
G54D13*
X0063Y00715D03*
Y0032D03*
G54D14*
X01682Y0008D03*
X01795Y00482D03*
Y00285D03*
Y00679D03*
X00302Y0068D03*
G54D15*
X005Y00515D03*
G54D16*
X005Y00236D03*
G54D17*
X0023Y00255D03*
G54D18*
X0023Y00455D03*
G54D19*
X01525Y0062D03*
Y0023D03*
X01035Y00425D03*
G54D20*
X01132Y0062D03*
Y0023D03*
G54D21*
X00615Y00165D03*
G54D22*
X00615Y00085D03*
G54D23*
X01357Y00185D03*
X00787Y00415D03*
X01357Y00655D03*
X00845D03*
Y00185D03*
M02*