%FSTAX23Y23*%
%MOIN*%
%SFA1B1*%

%IPPOS*%
%AMD17*
4,1,8,0.045300,0.018700,0.018700,0.045300,-0.018700,0.045300,-0.045300,0.018700,-0.045300,-0.018700,-0.018700,-0.045300,0.018700,-0.045300,0.045300,-0.018700,0.045300,0.018700,0.0*
%
%ADD10C,0.019685*%
%ADD11C,0.118110*%
%ADD12C,0.039370*%
%ADD13O,0.098425X0.060000*%
%ADD14C,0.078740*%
%ADD15R,0.078740X0.078740*%
%ADD16C,0.090551*%
G04~CAMADD=17~4~0.0~0.0~905.7~905.7~0.0~265.3~0~0.0~0.0~0.0~0.0~0~0.0~0.0~0.0~0.0~0~0.0~0.0~0.0~315.0~905.7~905.7*
%ADD17D17*%
%LNdual_channel_common_vcc_pcb-1*%
%LPD*%
G54D10*
X0Y01275D02*
X0162D01*
Y0D02*
Y01275D01*
X0Y0D02*
Y01275D01*
Y0D02*
X0162D01*
X01268Y0115D02*
X0128Y01137D01*
X01268Y0014D02*
X01281Y00127D01*
X01023Y00335D02*
X01035Y00324D01*
G54D11*
X01149Y0076D02*
X01265D01*
X01282Y00744*
X014*
X01149Y0115D02*
X01268D01*
X0128Y01137D02*
X014D01*
X01149Y0014D02*
X01268D01*
X01281Y00127D02*
X014D01*
X01149Y0053D02*
X0127D01*
X01279Y0052*
X014*
X00659Y00335D02*
X01023D01*
X01035Y00324D02*
X014D01*
X01109Y0072D02*
X01149Y0076D01*
X0106Y0072D02*
X01109D01*
X01109Y0119D02*
X01149Y0115D01*
X0106Y0119D02*
X01109D01*
X0049Y0095D02*
X00579Y00955D01*
X01109Y001D02*
X01149Y0014D01*
X0106Y001D02*
X01109D01*
X01109Y0057D02*
X01149Y0053D01*
X0106Y0057D02*
X01109D01*
X0049Y0033D02*
X00579Y00335D01*
X00659*
X01386Y00955D02*
X014Y0094D01*
X00659Y00955D02*
X01386D01*
X00579D02*
X00659D01*
G54D12*
X003Y001D02*
X00549D01*
X0024Y0016D02*
X003Y001D01*
X0024Y0016D02*
Y00495D01*
X00715Y0072D02*
X00755Y0076D01*
X00549Y0072D02*
X00715D01*
X0024Y00692D02*
X00269Y0072D01*
X00145Y00596D02*
X0024Y00692D01*
X00145Y00255D02*
Y00596D01*
X00715Y001D02*
X00755Y0014D01*
X00549Y001D02*
X00715D01*
X00715Y0119D02*
X00755Y0115D01*
X00549Y0119D02*
X00715D01*
X00361Y0115D02*
X00401Y0119D01*
X00361Y0101D02*
Y0115D01*
X0024Y00889D02*
X00361Y0101D01*
X0024Y00889D02*
X00362D01*
X0087Y00645D02*
Y0078D01*
X00755Y0053D02*
X0087Y00645D01*
X00345Y00255D02*
Y00485D01*
X0043Y0057*
X00549*
X00055Y01045D02*
X0016Y0115D01*
X00055Y00205D02*
Y01045D01*
Y00205D02*
X0016Y001D01*
X003*
X00549Y0057D02*
X00589Y0053D01*
X00755*
X00362Y00889D02*
X0041Y0084D01*
X0081*
X0087Y0078*
X00269Y0072D02*
X00549D01*
X00401Y0119D02*
X00549D01*
G54D13*
X00549Y0072D03*
Y0119D03*
X0106D03*
X0049Y0095D03*
X0106Y0072D03*
X00549Y001D03*
Y0057D03*
X0106D03*
X0049Y0033D03*
X0106Y001D03*
G54D14*
X00145Y00255D03*
X0024Y00495D03*
Y00889D03*
Y00692D03*
X0016Y0115D03*
X014Y01137D03*
Y00744D03*
Y0094D03*
Y0052D03*
Y00127D03*
Y00324D03*
G54D15*
X00345Y00255D03*
X00361Y0115D03*
G54D16*
X00659Y00955D03*
X01149Y0076D03*
Y0115D03*
X00659Y00335D03*
X01149Y0014D03*
Y0053D03*
G54D17*
X00755Y0076D03*
Y0115D03*
Y0014D03*
Y0053D03*
M02*